<?xml version="1.0" encoding="utf-8"?>
<!-- Generator: Adobe Illustrator 26.3.1, SVG Export Plug-In . SVG Version: 6.00 Build 0)  -->
<svg version="1.1" id="Layer_1" xmlns="http://www.w3.org/2000/svg" xmlns:xlink="http://www.w3.org/1999/xlink" x="0px" y="0px"
	 width="35.7px" height="29.9px" viewBox="0 0 35.7 29.9" style="enable-background:new 0 0 35.7 29.9;" xml:space="preserve">
<style type="text/css">
	.st0{display:none;}
	.st1{display:inline;}
	.st2{fill:#2D2D2D;}
	.st3{display:inline;fill:#D81D4A;}
	.st4{fill:#D81D4A;}
	.st5{display:inline;fill:#2D2D2D;}
</style>
<g id="musical" class="st0">
	<g class="st1">
		<rect x="6.5" y="-3.9" class="st2" width="29.7" height="7.7"/>
		<path class="st2" d="M6.5,25.3c-0.8-0.4-1.6-0.7-2.6-0.7c-2.8,0-5.2,2.3-5.2,5.2c0,2.8,2.3,5.2,5.2,5.2c1.2,0,2.4-0.5,3.4-1.3
			c1-0.9,1.5-2,1.7-3.3c0.1-0.7,0.1-1.6,0.1-2.3c0-0.9,0-1.8,0-2.7c0-2.4,0-4.7,0-7.1s0-4.7,0-7.1c0-1.4,0-2.9,0-4.3
			c0-0.1,0-0.2,0-0.4H6.5V25.3z"/>
		<path class="st2" d="M36.2,23.3c-0.1-1.5,0-3.1,0-4.6c0-2.3,0-4.7,0-7c0-1.6,0-3.2,0-4.9c0-0.1,0-0.2,0-0.3h-2.6v13.1
			c-0.7-0.4-1.6-0.7-2.5-0.7c-2.8,0-5.2,2.3-5.2,5.2c0,2.8,2.3,5.2,5.2,5.2c1.5,0,3-0.7,4-1.9c0.9-1.1,1.2-2.5,1.1-3.9
			C36.2,23.3,36.2,23.3,36.2,23.3z"/>
	</g>
</g>
<g id="musical-dla-dzieci" class="st0">
	<rect x="6.6" y="-3.9" class="st3" width="29.7" height="7.7"/>
	<g class="st1">
		<g>
			<path class="st4" d="M20.4,42.3c-4.7,0-9-3.2-10.2-7.9l2.9-0.7c1,4,5.1,6.5,9.2,5.4c4-1,6.5-5.1,5.4-9.2l2.9-0.7
				c1.4,5.6-2,11.4-7.6,12.8C22.1,42.2,21.2,42.3,20.4,42.3z"/>
		</g>
	</g>
	<g class="st1">
		<g>
			<path class="st4" d="M6.5,21.8c-0.8-0.4-1.6-0.7-2.6-0.7c-2.8,0-5.2,2.3-5.2,5.2s2.3,5.2,5.2,5.2c2.7,0,4.9-2.1,5.1-4.7h0.1V6.5
				H6.5V21.8z M3.9,28.2c-1.1,0-1.9-0.9-1.9-1.9c0-1.1,0.9-1.9,1.9-1.9c1.1,0,1.9,0.9,1.9,1.9C5.8,27.4,5,28.2,3.9,28.2z"/>
			<path class="st4" d="M36.2,19.8V6.4h-2.6V16c-0.7-0.4-1.6-0.7-2.5-0.7c-2.8,0-5.2,2.3-5.2,5.2s2.3,5.2,5.2,5.2
				c2.8,0,5.2-2.3,5.2-5.2C36.3,20.3,36.3,20,36.2,19.8z M31.1,22.6c-1.1,0-1.9-0.9-1.9-1.9c0-1.1,0.9-1.9,1.9-1.9
				c1.1,0,1.9,0.9,1.9,1.9C33.1,21.7,32.2,22.6,31.1,22.6z"/>
		</g>
	</g>
</g>
<g id="wyklad-warsztat" class="st0">
	<g class="st1">
		<rect x="-2.6" y="25.1" class="st2" width="40.4" height="7.7"/>
		<rect x="8" y="12.4" class="st2" width="19.2" height="7.7"/>
		<circle class="st2" cx="17.5" cy="1.4" r="5.2"/>
	</g>
</g>
<g id="wystawa" class="st0">
	<g class="st1">
		<rect x="5.6" y="29.5" class="st2" width="7.7" height="5.5"/>
		<rect x="21.8" y="29.5" class="st2" width="7.7" height="5.5"/>
	</g>
	<g class="st1">
		<g>
			<rect x="-1.5" y="-3.9" class="st2" width="7.7" height="30.4"/>
			<rect x="28.8" y="-3.9" class="st2" width="7.7" height="30.4"/>
		</g>
		<circle class="st2" cx="17.5" cy="11.2" r="5.2"/>
	</g>
</g>
<g id="koncert" class="st0">
	<g class="st1">
		
			<rect x="23.1" y="-6.7" transform="matrix(0.7071 -0.7071 0.7071 0.7071 10.1267 16.0536)" class="st2" width="2.6" height="5.1"/>
		<rect x="35.2" y="5.4" transform="matrix(0.7071 -0.7071 0.7071 0.7071 5.0698 28.1242)" class="st2" width="2.6" height="5.1"/>
		
			<rect x="26.4" y="-9.9" transform="matrix(0.7071 -0.7071 0.7071 0.7071 13.3518 17.4479)" class="st2" width="2.6" height="5.1"/>
		<rect x="38.5" y="2.2" transform="matrix(0.7071 -0.7071 0.7071 0.7071 8.2949 29.5185)" class="st2" width="2.6" height="5.1"/>
		<rect x="18.1" y="2.7" transform="matrix(0.7071 -0.7071 0.7071 0.7071 2.9879 20.2487)" class="st2" width="15.7" height="7.7"/>
		<path class="st2" d="M7.5,11.2c-7.8,0-14.2,6.3-14.2,14.2s6.3,14.2,14.2,14.2s14.2-6.3,14.2-14.2S15.3,11.2,7.5,11.2z M7.5,31.9
			c-3.6,0-6.6-2.9-6.6-6.6s2.9-6.6,6.6-6.6s6.6,2.9,6.6,6.6S11.1,31.9,7.5,31.9z"/>
	</g>
</g>
<g id="spektakl" class="st0">
	<g class="st1">
		<rect x="-2.7" y="-4.1" class="st2" width="40.4" height="7.7"/>
		<g>
			<circle class="st2" cx="11.4" cy="13.8" r="5.2"/>
			<circle class="st2" cx="23.5" cy="13.8" r="5.2"/>
		</g>
		<g>
			<circle class="st2" cx="4.6" cy="26.9" r="5.2"/>
			<circle class="st2" cx="30.3" cy="26.9" r="5.2"/>
			<circle class="st2" cx="16.6" cy="26.9" r="5.2"/>
		</g>
	</g>
</g>
<g id="monodram-muzyczny" class="st0">
	<rect x="13.5" y="20.2" class="st5" width="7.7" height="17"/>
	<circle class="st5" cx="17.4" cy="11" r="5.2"/>
	<g class="st1">
		<g>
			<rect x="-1.5" y="-4.1" class="st2" width="7.7" height="30.4"/>
			<rect x="28.8" y="-4.1" class="st2" width="7.7" height="30.4"/>
		</g>
	</g>
</g>
<g id="premiera" class="st0">
	<rect x="1.2" y="10.8" class="st5" width="7.7" height="18.2"/>
	<rect x="26" y="10.8" class="st5" width="7.7" height="18.2"/>
	<path class="st5" d="M29.9-3.6c-2.8,0-5.2,2.3-5.2,5.2c0,0.1,0,0.3,0,0.4c-0.7,3.5-3.8,6.1-7.5,6c-3.5-0.1-6.4-2.5-7.2-5.7
		c0-0.3,0.1-0.5,0.1-0.8c0-2.8-2.3-5.2-5.2-5.2c-2.8,0-5.2,2.3-5.2,5.2c0,2.8,2.3,5.2,5.2,5.2c1.2,0,2.3-0.4,3.2-1.1
		c1.4,2.4,3.7,4.3,6.4,5.1c0.8,0.2,1.7,0.4,2.6,0.4c4.1,0.1,7.6-2.2,9.4-5.5c0.9,0.7,2,1.2,3.2,1.2c2.8,0,5.2-2.3,5.2-5.2
		C35.1-1.3,32.7-3.6,29.9-3.6z"/>
</g>
<rect x="6.4" y="9.3" transform="matrix(6.123234e-17 -1 1 6.123234e-17 -8.8482 36.3243)" class="st2" width="14.6" height="26.5"/>
<rect x="27.6" y="19.9" transform="matrix(6.123234e-17 -1 1 6.123234e-17 9.7017 55.6698)" class="st2" width="10.2" height="6.1"/>
<circle class="st2" cx="21.2" cy="5.9" r="5.9"/>
<circle class="st2" cx="5.9" cy="6" r="5.9"/>
</svg>
