<?xml version="1.0" encoding="utf-8"?>
<!-- Generator: Adobe Illustrator 26.3.1, SVG Export Plug-In . SVG Version: 6.00 Build 0)  -->
<svg version="1.1" id="Layer_1" xmlns="http://www.w3.org/2000/svg" xmlns:xlink="http://www.w3.org/1999/xlink" x="0px" y="0px"
	 width="21.9px" height="51.7px" viewBox="0 0 21.9 51.7" style="enable-background:new 0 0 21.9 51.7;" xml:space="preserve">
<style type="text/css">
	.st0{display:none;}
	.st1{display:inline;}
	.st2{fill:#2D2D2D;}
	.st3{display:inline;fill:#D81D4A;}
	.st4{fill:#D81D4A;}
	.st5{display:inline;fill:#2D2D2D;}
</style>
<g id="musical" class="st0">
	<g class="st1">
		<rect x="-44.5" y="11.5" class="st2" width="29.7" height="7.7"/>
		<path class="st2" d="M-44.5,40.7c-0.8-0.4-1.6-0.7-2.6-0.7c-2.8,0-5.2,2.3-5.2,5.2c0,2.8,2.3,5.2,5.2,5.2c1.2,0,2.4-0.5,3.4-1.3
			c1-0.9,1.5-2,1.7-3.3c0.1-0.7,0.1-1.6,0.1-2.3c0-0.9,0-1.8,0-2.7c0-2.4,0-4.7,0-7.1c0-2.4,0-4.7,0-7.1c0-1.4,0-2.9,0-4.3
			c0-0.1,0-0.2,0-0.4h-2.6V40.7z"/>
		<path class="st2" d="M-14.8,38.7c-0.1-1.5,0-3.1,0-4.6c0-2.3,0-4.7,0-7c0-1.6,0-3.2,0-4.9c0-0.1,0-0.2,0-0.3h-2.6V35
			c-0.7-0.4-1.6-0.7-2.5-0.7c-2.8,0-5.2,2.3-5.2,5.2c0,2.8,2.3,5.2,5.2,5.2c1.5,0,3-0.7,4-1.9c0.9-1.1,1.2-2.5,1.1-3.9
			C-14.8,38.7-14.8,38.7-14.8,38.7z"/>
	</g>
</g>
<g id="musical-dla-dzieci" class="st0">
	<rect x="-44.5" y="11.5" class="st3" width="29.7" height="7.7"/>
	<g class="st1">
		<g>
			<path class="st4" d="M-30.6,57.7c-4.7,0-9-3.2-10.2-7.9l2.9-0.7c1,4,5.1,6.5,9.2,5.4c4-1,6.5-5.1,5.4-9.2l2.9-0.7
				c1.4,5.6-2,11.4-7.6,12.8C-28.9,57.6-29.8,57.7-30.6,57.7z"/>
		</g>
	</g>
	<g class="st1">
		<g>
			<path class="st4" d="M-44.5,37.2c-0.8-0.4-1.6-0.7-2.6-0.7c-2.8,0-5.2,2.3-5.2,5.2s2.3,5.2,5.2,5.2c2.7,0,4.9-2.1,5.1-4.7h0.1
				V21.9h-2.6V37.2z M-47.1,43.6c-1.1,0-1.9-0.9-1.9-1.9c0-1.1,0.9-1.9,1.9-1.9c1.1,0,1.9,0.9,1.9,1.9C-45.2,42.8-46,43.6-47.1,43.6
				z"/>
			<path class="st4" d="M-14.8,35.2V21.8h-2.6v9.6c-0.7-0.4-1.6-0.7-2.5-0.7c-2.8,0-5.2,2.3-5.2,5.2s2.3,5.2,5.2,5.2
				c2.8,0,5.2-2.3,5.2-5.2C-14.7,35.7-14.7,35.4-14.8,35.2z M-19.9,38c-1.1,0-1.9-0.9-1.9-1.9c0-1.1,0.9-1.9,1.9-1.9
				c1.1,0,1.9,0.9,1.9,1.9C-17.9,37.1-18.8,38-19.9,38z"/>
		</g>
	</g>
</g>
<g id="wyklad-warsztat" class="st0">
	<g class="st1">
		<rect x="-53.6" y="40.5" class="st2" width="40.4" height="7.7"/>
		<rect x="-43" y="27.8" class="st2" width="19.2" height="7.7"/>
		<circle class="st2" cx="-33.5" cy="16.8" r="5.2"/>
	</g>
</g>
<g id="wystawa" class="st0">
	<g class="st1">
		<rect x="-45.5" y="45" class="st2" width="7.7" height="5.5"/>
		<rect x="-29.2" y="45" class="st2" width="7.7" height="5.5"/>
	</g>
	<g class="st1">
		<g>
			<rect x="-52.6" y="11.5" class="st2" width="7.7" height="30.4"/>
			<rect x="-22.2" y="11.5" class="st2" width="7.7" height="30.4"/>
		</g>
		<circle class="st2" cx="-33.5" cy="26.6" r="5.2"/>
	</g>
</g>
<g id="koncert" class="st0">
	<g class="st1">
		
			<rect x="-27.9" y="8.7" transform="matrix(0.7071 -0.7071 0.7071 0.7071 -15.7326 -15.5353)" class="st2" width="2.6" height="5.1"/>
		
			<rect x="-15.9" y="20.8" transform="matrix(0.7071 -0.7071 0.7071 0.7071 -20.7895 -3.4647)" class="st2" width="2.6" height="5.1"/>
		
			<rect x="-24.6" y="5.5" transform="matrix(0.7071 -0.7071 0.7071 0.7071 -12.5075 -14.141)" class="st2" width="2.6" height="5.1"/>
		
			<rect x="-12.6" y="17.6" transform="matrix(0.7071 -0.7071 0.7071 0.7071 -17.5644 -2.0704)" class="st2" width="2.6" height="5.1"/>
		
			<rect x="-33" y="18.1" transform="matrix(0.7071 -0.7071 0.7071 0.7071 -22.8714 -11.3402)" class="st2" width="15.7" height="7.7"/>
		<path class="st2" d="M-43.5,26.6c-7.8,0-14.2,6.3-14.2,14.2S-51.4,55-43.5,55s14.2-6.3,14.2-14.2S-35.7,26.6-43.5,26.6z
			 M-43.5,47.3c-3.6,0-6.6-2.9-6.6-6.6c0-3.7,2.9-6.6,6.6-6.6c3.7,0,6.6,2.9,6.6,6.6C-36.9,44.4-39.9,47.3-43.5,47.3z"/>
	</g>
</g>
<g id="spektakl" class="st0">
	<g class="st1">
		<rect x="-53.8" y="11.3" class="st2" width="40.4" height="7.7"/>
		<g>
			<circle class="st2" cx="-39.6" cy="29.2" r="5.2"/>
			<circle class="st2" cx="-27.5" cy="29.2" r="5.2"/>
		</g>
		<g>
			<circle class="st2" cx="-46.4" cy="42.3" r="5.2"/>
			<circle class="st2" cx="-20.7" cy="42.3" r="5.2"/>
			<circle class="st2" cx="-34.4" cy="42.3" r="5.2"/>
		</g>
	</g>
</g>
<g id="monodram-muzyczny" class="st0">
	<rect x="-37.5" y="35.6" class="st5" width="7.7" height="17"/>
	<circle class="st5" cx="-33.6" cy="26.4" r="5.2"/>
	<g class="st1">
		<g>
			<rect x="-52.6" y="11.4" class="st2" width="7.7" height="30.4"/>
			<rect x="-22.2" y="11.4" class="st2" width="7.7" height="30.4"/>
		</g>
	</g>
</g>
<g id="premiera" class="st0">
	<rect x="-49.8" y="26.2" class="st5" width="7.7" height="18.2"/>
	<rect x="-25" y="26.2" class="st5" width="7.7" height="18.2"/>
	<path class="st5" d="M-21.1,11.8c-2.8,0-5.2,2.3-5.2,5.2c0,0.1,0,0.3,0,0.4c-0.7,3.5-3.8,6.1-7.5,6c-3.5-0.1-6.4-2.5-7.2-5.7
		c0-0.3,0.1-0.5,0.1-0.8c0-2.8-2.3-5.2-5.2-5.2c-2.8,0-5.2,2.3-5.2,5.2c0,2.8,2.3,5.2,5.2,5.2c1.2,0,2.3-0.4,3.2-1.1
		c1.4,2.4,3.7,4.3,6.4,5.1c0.8,0.2,1.7,0.4,2.6,0.4c4.1,0.1,7.6-2.2,9.4-5.5c0.9,0.7,2,1.2,3.2,1.2c2.8,0,5.2-2.3,5.2-5.2
		C-15.9,14.1-18.3,11.8-21.1,11.8z"/>
</g>
<g>
	<path class="st2" d="M20.7,44.2L20.7,44.2l-8.8-13.8l8.4-5.4l-4.2-6.5L5.6,25.3l2,3.2l8.3,12.9c-0.9,0-1.8,0.3-2.6,0.8
		c-2.4,1.5-3.1,4.7-1.6,7.1c1.5,2.4,4.7,3.1,7.1,1.6C21.2,49.5,21.9,46.5,20.7,44.2z"/>
	<path class="st2" d="M10.1,19L10.1,19l8.5-17.9L16.2,0L9.9,13.5c-0.5-0.7-1.2-1.4-2-1.8c-2.6-1.2-5.6-0.1-6.9,2.5
		c-1.2,2.6-0.1,5.6,2.5,6.9C5.9,22.2,8.7,21.2,10.1,19z"/>
</g>
</svg>
