<?xml version="1.0" encoding="utf-8"?>
<!-- Generator: Adobe Illustrator 26.3.1, SVG Export Plug-In . SVG Version: 6.00 Build 0)  -->
<svg version="1.1" id="Layer_1" xmlns="http://www.w3.org/2000/svg" xmlns:xlink="http://www.w3.org/1999/xlink" x="0px" y="0px"
	 width="33.7px" height="28.6px" viewBox="0 0 33.7 28.6" style="enable-background:new 0 0 33.7 28.6;" xml:space="preserve">
<style type="text/css">
	.st0{display:none;}
	.st1{display:inline;}
	.st2{fill:#2D2D2D;}
	.st3{display:inline;fill:#D81D4A;}
	.st4{fill:#D81D4A;}
	.st5{display:inline;fill:#2D2D2D;}
</style>
<g id="musical" class="st0">
	<g class="st1">
		<rect x="5.6" y="-4.6" class="st2" width="29.7" height="7.7"/>
		<path class="st2" d="M5.6,24.6C4.8,24.2,4,23.9,3,23.9c-2.8,0-5.2,2.3-5.2,5.2c0,2.8,2.3,5.2,5.2,5.2c1.2,0,2.4-0.5,3.4-1.3
			c1-0.9,1.5-2,1.7-3.3c0.1-0.7,0.1-1.6,0.1-2.3c0-0.9,0-1.8,0-2.7c0-2.4,0-4.7,0-7.1s0-4.7,0-7.1c0-1.4,0-2.9,0-4.3
			c0-0.1,0-0.2,0-0.4H5.6V24.6z"/>
		<path class="st2" d="M35.3,22.6c-0.1-1.5,0-3.1,0-4.6c0-2.3,0-4.7,0-7c0-1.6,0-3.2,0-4.9c0-0.1,0-0.2,0-0.3h-2.6v13.1
			c-0.7-0.4-1.6-0.7-2.5-0.7c-2.8,0-5.2,2.3-5.2,5.2c0,2.8,2.3,5.2,5.2,5.2c1.5,0,3-0.7,4-1.9c0.9-1.1,1.2-2.5,1.1-3.9
			C35.3,22.6,35.3,22.6,35.3,22.6z"/>
	</g>
</g>
<g id="musical-dla-dzieci" class="st0">
	<rect x="5.6" y="-4.6" class="st3" width="29.7" height="7.7"/>
	<g class="st1">
		<g>
			<path class="st4" d="M19.5,41.6c-4.7,0-9-3.2-10.2-7.9l2.9-0.7c1,4,5.1,6.5,9.2,5.4c4-1,6.5-5.1,5.4-9.2l2.9-0.7
				c1.4,5.6-2,11.4-7.6,12.8C21.2,41.5,20.3,41.6,19.5,41.6z"/>
		</g>
	</g>
	<g class="st1">
		<g>
			<path class="st4" d="M5.6,21.1C4.8,20.7,4,20.4,3,20.4c-2.8,0-5.2,2.3-5.2,5.2s2.3,5.2,5.2,5.2c2.7,0,4.9-2.1,5.1-4.7h0.1V5.8
				H5.6V21.1z M3,27.5c-1.1,0-1.9-0.9-1.9-1.9c0-1.1,0.9-1.9,1.9-1.9c1.1,0,1.9,0.9,1.9,1.9C4.9,26.7,4.1,27.5,3,27.5z"/>
			<path class="st4" d="M35.3,19.1V5.7h-2.6v9.6c-0.7-0.4-1.6-0.7-2.5-0.7c-2.8,0-5.2,2.3-5.2,5.2s2.3,5.2,5.2,5.2
				c2.8,0,5.2-2.3,5.2-5.2C35.4,19.6,35.4,19.3,35.3,19.1z M30.2,21.9c-1.1,0-1.9-0.9-1.9-1.9c0-1.1,0.9-1.9,1.9-1.9
				c1.1,0,1.9,0.9,1.9,1.9C32.2,21,31.3,21.9,30.2,21.9z"/>
		</g>
	</g>
</g>
<g id="wyklad-warsztat" class="st0">
	<g class="st1">
		<rect x="-3.6" y="24.4" class="st2" width="40.4" height="7.7"/>
		<rect x="7" y="11.7" class="st2" width="19.2" height="7.7"/>
		<circle class="st2" cx="16.6" cy="0.7" r="5.2"/>
	</g>
</g>
<g id="wystawa" class="st0">
	<g class="st1">
		<rect x="4.6" y="28.9" class="st2" width="7.7" height="5.5"/>
		<rect x="20.9" y="28.9" class="st2" width="7.7" height="5.5"/>
	</g>
	<g class="st1">
		<g>
			<rect x="-2.5" y="-4.6" class="st2" width="7.7" height="30.4"/>
			<rect x="27.8" y="-4.6" class="st2" width="7.7" height="30.4"/>
		</g>
		<circle class="st2" cx="16.6" cy="10.5" r="5.2"/>
	</g>
</g>
<g id="koncert" class="st0">
	<g class="st1">
		
			<rect x="22.1" y="-7.4" transform="matrix(0.7071 -0.7071 0.7071 0.7071 10.3039 15.1558)" class="st2" width="2.6" height="5.1"/>
		<rect x="34.2" y="4.7" transform="matrix(0.7071 -0.7071 0.7071 0.7071 5.247 27.2264)" class="st2" width="2.6" height="5.1"/>
		
			<rect x="25.4" y="-10.6" transform="matrix(0.7071 -0.7071 0.7071 0.7071 13.529 16.5501)" class="st2" width="2.6" height="5.1"/>
		<rect x="37.5" y="1.5" transform="matrix(0.7071 -0.7071 0.7071 0.7071 8.4721 28.6207)" class="st2" width="2.6" height="5.1"/>
		<rect x="17.1" y="2" transform="matrix(0.7071 -0.7071 0.7071 0.7071 3.1651 19.3509)" class="st2" width="15.7" height="7.7"/>
		<path class="st2" d="M6.6,10.5c-7.8,0-14.2,6.3-14.2,14.2s6.3,14.2,14.2,14.2s14.2-6.3,14.2-14.2S14.4,10.5,6.6,10.5z M6.6,31.2
			C3,31.2,0,28.3,0,24.6S2.9,18,6.6,18s6.6,2.9,6.6,6.6S10.2,31.2,6.6,31.2z"/>
	</g>
</g>
<g id="spektakl" class="st0">
	<g class="st1">
		<rect x="-3.7" y="-4.7" class="st2" width="40.4" height="7.7"/>
		<g>
			<circle class="st2" cx="10.5" cy="13.1" r="5.2"/>
			<circle class="st2" cx="22.6" cy="13.1" r="5.2"/>
		</g>
		<g>
			<circle class="st2" cx="3.7" cy="26.2" r="5.2"/>
			<circle class="st2" cx="29.4" cy="26.2" r="5.2"/>
			<circle class="st2" cx="15.7" cy="26.2" r="5.2"/>
		</g>
	</g>
</g>
<g id="monodram-muzyczny" class="st0">
	<rect x="12.6" y="19.5" class="st5" width="7.7" height="17"/>
	<circle class="st5" cx="16.5" cy="10.3" r="5.2"/>
	<g class="st1">
		<g>
			<rect x="-2.5" y="-4.7" class="st2" width="7.7" height="30.4"/>
			<rect x="27.8" y="-4.7" class="st2" width="7.7" height="30.4"/>
		</g>
	</g>
</g>
<g id="premiera" class="st0">
	<rect x="0.3" y="10.1" class="st5" width="7.7" height="18.2"/>
	<rect x="25.1" y="10.1" class="st5" width="7.7" height="18.2"/>
	<path class="st5" d="M29-4.3c-2.8,0-5.2,2.3-5.2,5.2c0,0.1,0,0.3,0,0.4c-0.7,3.5-3.8,6.1-7.5,6c-3.5-0.1-6.4-2.5-7.2-5.7
		c0-0.3,0.1-0.5,0.1-0.8C9.2-2,6.9-4.4,4-4.4c-2.8,0-5.2,2.3-5.2,5.2C-1.2,3.6,1.1,6,4,6c1.2,0,2.3-0.4,3.2-1.1
		c1.4,2.4,3.7,4.3,6.4,5.1c0.8,0.2,1.7,0.4,2.6,0.4c4.1,0.1,7.6-2.2,9.4-5.5c0.9,0.7,2,1.2,3.2,1.2c2.8,0,5.2-2.3,5.2-5.2
		C34.2-2,31.8-4.3,29-4.3z"/>
</g>
<circle class="st2" cx="28.6" cy="5.2" r="5.2"/>
<rect y="4.3" class="st2" width="7.7" height="24.2"/>
<rect x="12.3" y="10.8" class="st2" width="7.7" height="17.7"/>
<rect x="24.2" y="15.4" class="st2" width="7.7" height="13.1"/>
</svg>
