<?xml version="1.0" encoding="utf-8"?>
<!-- Generator: Adobe Illustrator 26.3.1, SVG Export Plug-In . SVG Version: 6.00 Build 0)  -->
<svg version="1.1" xmlns="http://www.w3.org/2000/svg" xmlns:xlink="http://www.w3.org/1999/xlink" x="0px" y="0px" width="49.8px"
	 height="50px" viewBox="0 0 49.8 50" style="enable-background:new 0 0 49.8 50;" xml:space="preserve">
<style type="text/css">
	.st0{display:none;}
	.st1{display:inline;}
	.st2{fill:#2D2D2D;}
	.st3{display:inline;fill:#D81D4A;}
	.st4{fill:#D81D4A;}
	.st5{display:inline;fill:#2D2D2D;}
</style>
<g id="musical" class="st0">
	<g class="st1">
		<rect x="13.5" y="6.2" class="st2" width="29.7" height="7.7"/>
		<path class="st2" d="M13.5,35.5c-0.8-0.4-1.6-0.7-2.6-0.7c-2.8,0-5.2,2.3-5.2,5.2c0,2.8,2.3,5.2,5.2,5.2c1.2,0,2.4-0.5,3.4-1.3
			c1-0.9,1.5-2,1.7-3.3c0.1-0.7,0.1-1.6,0.1-2.3c0-0.9,0-1.8,0-2.7c0-2.4,0-4.7,0-7.1c0-2.4,0-4.7,0-7.1c0-1.4,0-2.9,0-4.3
			c0-0.1,0-0.2,0-0.4h-2.6V35.5z"/>
		<path class="st2" d="M43.3,33.4c-0.1-1.5,0-3.1,0-4.6c0-2.3,0-4.7,0-7c0-1.6,0-3.2,0-4.9c0-0.1,0-0.2,0-0.3h-2.6v13.1
			C40,29.3,39.1,29,38.2,29c-2.8,0-5.2,2.3-5.2,5.2c0,2.8,2.3,5.2,5.2,5.2c1.5,0,3-0.7,4-1.9c0.9-1.1,1.2-2.5,1.1-3.9
			C43.3,33.5,43.3,33.4,43.3,33.4z"/>
	</g>
</g>
<g id="musical-dla-dzieci" class="st0">
	
		<rect x="24.6" y="-4.8" transform="matrix(6.123234e-17 -1 1 6.123234e-17 18.3601 38.5308)" class="st3" width="7.7" height="29.7"/>
	<g class="st1">
		<g>
			<path class="st4" d="M27.5,52.4c-4.7,0-9-3.2-10.2-7.9l2.9-0.7c1,4,5.1,6.5,9.2,5.4c4-1,6.5-5.1,5.4-9.2l2.9-0.7
				c1.4,5.6-2,11.4-7.6,12.8C29.2,52.3,28.3,52.4,27.5,52.4z"/>
		</g>
	</g>
	<g class="st1">
		<g>
			<path class="st4" d="M13.6,32c-0.8-0.4-1.6-0.7-2.6-0.7c-2.8,0-5.2,2.3-5.2,5.2s2.3,5.2,5.2,5.2c2.7,0,4.9-2.1,5.1-4.7h0.1V16.6
				h-2.6V32z M11,38.4c-1.1,0-1.9-0.9-1.9-1.9c0-1.1,0.9-1.9,1.9-1.9c1.1,0,1.9,0.9,1.9,1.9C12.9,37.5,12,38.4,11,38.4z"/>
			<path class="st4" d="M43.3,29.9V16.6h-2.6v9.6c-0.7-0.4-1.6-0.7-2.5-0.7c-2.8,0-5.2,2.3-5.2,5.2s2.3,5.2,5.2,5.2
				c2.8,0,5.2-2.3,5.2-5.2C43.4,30.4,43.3,30.2,43.3,29.9z M38.2,32.7c-1.1,0-1.9-0.9-1.9-1.9c0-1.1,0.9-1.9,1.9-1.9
				c1.1,0,1.9,0.9,1.9,1.9C40.2,31.8,39.3,32.7,38.2,32.7z"/>
		</g>
	</g>
</g>
<g id="wyklad-warsztat" class="st0">
	<g class="st1">
		
			<rect x="20.8" y="18.9" transform="matrix(-1.836970e-16 1 -1 -1.836970e-16 63.6973 14.4618)" class="st2" width="7.7" height="40.4"/>
		
			<rect x="20.8" y="16.8" transform="matrix(-1.836970e-16 1 -1 -1.836970e-16 51.009 1.7735)" class="st2" width="7.7" height="19.2"/>
		<circle class="st2" cx="24.6" cy="11.6" r="5.2"/>
	</g>
</g>
<g id="wystawa" class="st0">
	<g class="st1">
		
			<rect x="12.5" y="39.6" transform="matrix(-1 -1.224647e-16 1.224647e-16 -1 32.7813 84.8307)" class="st2" width="7.7" height="5.5"/>
		
			<rect x="28.8" y="39.6" transform="matrix(-1 -1.224647e-16 1.224647e-16 -1 65.3684 84.8307)" class="st2" width="7.7" height="5.5"/>
	</g>
	<g class="st1">
		<g>
			
				<rect x="5.5" y="6.2" transform="matrix(-1 -1.224647e-16 1.224647e-16 -1 18.6896 42.7659)" class="st2" width="7.7" height="30.4"/>
			
				<rect x="35.9" y="6.2" transform="matrix(-1 -1.224647e-16 1.224647e-16 -1 79.4601 42.7659)" class="st2" width="7.7" height="30.4"/>
		</g>
		<circle class="st2" cx="24.5" cy="21.4" r="5.2"/>
	</g>
</g>
<g id="koncert">
	<g>
		<rect x="30.1" y="3.4" transform="matrix(0.7071 -0.7071 0.7071 0.7071 4.9788 23.9717)" class="st2" width="2.6" height="5.1"/>
		
			<rect x="42.2" y="15.5" transform="matrix(0.7071 -0.7071 0.7071 0.7071 -2.023713e-02 36.0405)" class="st2" width="2.6" height="5.1"/>
		<rect x="33.4" y="0.3" transform="matrix(0.7071 -0.7071 0.7071 0.7071 8.2037 25.372)" class="st2" width="2.6" height="5.1"/>
		<rect x="45.5" y="12.3" transform="matrix(0.7071 -0.7071 0.7071 0.7071 3.2047 37.4408)" class="st2" width="2.6" height="5.1"/>
		
			<rect x="29.2" y="8.8" transform="matrix(-0.7071 -0.7071 0.7071 -0.7071 44.5981 51.756)" class="st2" width="7.7" height="15.7"/>
		<path class="st2" d="M14.5,21.3c-7.8,0-14.2,6.3-14.2,14.2s6.3,14.2,14.2,14.2s14.2-6.3,14.2-14.2S22.4,21.3,14.5,21.3z M14.5,42
			C10.9,42,8,39.1,8,35.5s2.9-6.6,6.6-6.6s6.6,2.9,6.6,6.6S18.2,42,14.5,42z"/>
	</g>
</g>
<g id="spektakl" class="st0">
	<g class="st1">
		
			<rect x="20.7" y="-10.3" transform="matrix(-1.836970e-16 1 -1 -1.836970e-16 34.4531 -14.6217)" class="st2" width="7.7" height="40.4"/>
		<g>
			<circle class="st2" cx="18.5" cy="23.9" r="5.2"/>
			<circle class="st2" cx="30.5" cy="23.9" r="5.2"/>
		</g>
		<g>
			<circle class="st2" cx="11.7" cy="37" r="5.2"/>
			<circle class="st2" cx="37.4" cy="37" r="5.2"/>
			<circle class="st2" cx="23.7" cy="37" r="5.2"/>
		</g>
	</g>
</g>
<g id="monodram-muzyczny" class="st0">
	<rect x="20.6" y="30.3" class="st5" width="7.7" height="17"/>
	<circle class="st5" cx="24.4" cy="21.2" r="5.2"/>
	<g class="st1">
		<g>
			
				<rect x="5.5" y="6.1" transform="matrix(-1 -1.224647e-16 1.224647e-16 -1 18.6896 42.5288)" class="st2" width="7.7" height="30.4"/>
			
				<rect x="35.9" y="6.1" transform="matrix(-1 -1.224647e-16 1.224647e-16 -1 79.4601 42.5288)" class="st2" width="7.7" height="30.4"/>
		</g>
	</g>
</g>
<g id="goscinny" class="st0">
	<g class="st1">
		<g>
			<path class="st2" d="M21,42.4c-5.3-1.3-9.2-6.2-9.3-11.9l3.5,0c0,4.8,3.9,8.8,8.8,8.8c4.8,0,8.8-4,8.8-8.8l3.5,0
				c0,6.8-5.5,12.3-12.2,12.3C23,42.7,22,42.6,21,42.4z"/>
		</g>
	</g>
	
		<rect x="20.7" y="2.6" transform="matrix(-1.836970e-16 1 -1 -1.836970e-16 47.3968 -1.678)" class="st5" width="7.7" height="40.4"/>
	
		<rect x="20.7" y="0.6" transform="matrix(-1.836970e-16 1 -1 -1.836970e-16 34.7085 -14.3664)" class="st5" width="7.7" height="19.2"/>
</g>
<g id="premiera" class="st0">
	<rect x="8.2" y="20.9" class="st5" width="7.7" height="18.2"/>
	<rect x="33.1" y="20.9" class="st5" width="7.7" height="18.2"/>
	<path class="st5" d="M37,6.6c-2.8,0-5.2,2.3-5.2,5.2c0,0.1,0,0.3,0,0.4c-0.7,3.5-3.8,6.1-7.5,6c-3.5-0.1-6.4-2.5-7.2-5.7
		c0-0.3,0.1-0.5,0.1-0.8c0-2.8-2.3-5.2-5.2-5.2c-2.8,0-5.2,2.3-5.2,5.2c0,2.8,2.3,5.2,5.2,5.2c1.2,0,2.3-0.4,3.2-1.1
		c1.4,2.4,3.7,4.3,6.4,5.1c0.8,0.2,1.7,0.4,2.6,0.4c4.1,0.1,7.6-2.2,9.4-5.5c0.9,0.7,2,1.2,3.2,1.2c2.8,0,5.2-2.3,5.2-5.2
		C42.1,8.9,39.8,6.6,37,6.6z"/>
</g>
</svg>
