<?xml version="1.0" encoding="utf-8"?>
<!-- Generator: Adobe Illustrator 26.3.1, SVG Export Plug-In . SVG Version: 6.00 Build 0)  -->
<svg version="1.1" id="Layer_1" xmlns="http://www.w3.org/2000/svg" xmlns:xlink="http://www.w3.org/1999/xlink" x="0px" y="0px"
	 width="41.7px" height="25.8px" viewBox="0 0 41.7 25.8" style="enable-background:new 0 0 41.7 25.8;" xml:space="preserve">
<style type="text/css">
	.st0{display:none;}
	.st1{display:inline;}
	.st2{fill:#2D2D2D;}
	.st3{display:inline;fill:#D81D4A;}
	.st4{fill:#D81D4A;}
	.st5{display:inline;fill:#2D2D2D;}
</style>
<g id="musical" class="st0">
	<g class="st1">
		<rect x="9.5" y="-5.9" class="st2" width="29.7" height="7.7"/>
		<path class="st2" d="M9.5,23.3c-0.8-0.4-1.6-0.7-2.6-0.7c-2.8,0-5.2,2.3-5.2,5.2C1.7,30.6,4,33,6.9,33c1.2,0,2.4-0.5,3.4-1.3
			c1-0.9,1.5-2,1.7-3.3c0.1-0.7,0.1-1.6,0.1-2.3c0-0.9,0-1.8,0-2.7c0-2.4,0-4.7,0-7.1s0-4.7,0-7.1c0-1.4,0-2.9,0-4.3
			c0-0.1,0-0.2,0-0.4H9.5V23.3z"/>
		<path class="st2" d="M39.2,21.3c-0.1-1.5,0-3.1,0-4.6c0-2.3,0-4.7,0-7c0-1.6,0-3.2,0-4.9c0-0.1,0-0.2,0-0.3h-2.6v13.1
			c-0.7-0.4-1.6-0.7-2.5-0.7c-2.8,0-5.2,2.3-5.2,5.2c0,2.8,2.3,5.2,5.2,5.2c1.5,0,3-0.7,4-1.9c0.9-1.1,1.2-2.5,1.1-3.9
			C39.2,21.3,39.2,21.3,39.2,21.3z"/>
	</g>
</g>
<g id="musical-dla-dzieci" class="st0">
	<rect x="9.6" y="-5.9" class="st3" width="29.7" height="7.7"/>
	<g class="st1">
		<g>
			<path class="st4" d="M23.4,40.3c-4.7,0-9-3.2-10.2-7.9l2.9-0.7c1,4,5.1,6.5,9.2,5.4c4-1,6.5-5.1,5.4-9.2l2.9-0.7
				c1.4,5.6-2,11.4-7.6,12.8C25.1,40.2,24.2,40.3,23.4,40.3z"/>
		</g>
	</g>
	<g class="st1">
		<g>
			<path class="st4" d="M9.5,19.8c-0.8-0.4-1.6-0.7-2.6-0.7c-2.8,0-5.2,2.3-5.2,5.2s2.3,5.2,5.2,5.2c2.7,0,4.9-2.1,5.1-4.7h0.1V4.5
				H9.5V19.8z M6.9,26.2c-1.1,0-1.9-0.9-1.9-1.9c0-1.1,0.9-1.9,1.9-1.9c1.1,0,1.9,0.9,1.9,1.9C8.8,25.4,8,26.2,6.9,26.2z"/>
			<path class="st4" d="M39.2,17.8V4.4h-2.6V14c-0.7-0.4-1.6-0.7-2.5-0.7c-2.8,0-5.2,2.3-5.2,5.2s2.3,5.2,5.2,5.2
				c2.8,0,5.2-2.3,5.2-5.2C39.3,18.3,39.3,18,39.2,17.8z M34.1,20.6c-1.1,0-1.9-0.9-1.9-1.9c0-1.1,0.9-1.9,1.9-1.9
				c1.1,0,1.9,0.9,1.9,1.9C36.1,19.7,35.2,20.6,34.1,20.6z"/>
		</g>
	</g>
</g>
<g id="wyklad-warsztat" class="st0">
	<g class="st1">
		<rect x="0.4" y="23.1" class="st2" width="40.4" height="7.7"/>
		<rect x="11" y="10.4" class="st2" width="19.2" height="7.7"/>
		<circle class="st2" cx="20.5" cy="-0.6" r="5.2"/>
	</g>
</g>
<g id="wystawa" class="st0">
	<g class="st1">
		<rect x="8.5" y="27.5" class="st2" width="7.7" height="5.5"/>
		<rect x="24.8" y="27.5" class="st2" width="7.7" height="5.5"/>
	</g>
	<g class="st1">
		<g>
			<rect x="1.5" y="-6" class="st2" width="7.7" height="30.4"/>
			<rect x="31.8" y="-6" class="st2" width="7.7" height="30.4"/>
		</g>
		<circle class="st2" cx="20.5" cy="9.2" r="5.2"/>
	</g>
</g>
<g id="koncert" class="st0">
	<g class="st1">
		
			<rect x="26.1" y="-8.8" transform="matrix(0.7071 -0.7071 0.7071 0.7071 12.4443 17.5702)" class="st2" width="2.6" height="5.1"/>
		<rect x="38.2" y="3.4" transform="matrix(0.7071 -0.7071 0.7071 0.7071 7.3874 29.6409)" class="st2" width="2.6" height="5.1"/>
		<rect x="29.4" y="-12" transform="matrix(0.7071 -0.7071 0.7071 0.7071 15.6693 18.9645)" class="st2" width="2.6" height="5.1"/>
		<rect x="41.5" y="0.2" transform="matrix(0.7071 -0.7071 0.7071 0.7071 10.6124 31.0352)" class="st2" width="2.6" height="5.1"/>
		<rect x="21.1" y="0.6" transform="matrix(0.7071 -0.7071 0.7071 0.7071 5.3055 21.7654)" class="st2" width="15.7" height="7.7"/>
		<path class="st2" d="M10.5,9.2c-7.8,0-14.2,6.3-14.2,14.2s6.3,14.2,14.2,14.2s14.2-6.3,14.2-14.2S18.3,9.2,10.5,9.2z M10.5,29.9
			c-3.6,0-6.6-2.9-6.6-6.6s2.9-6.6,6.6-6.6s6.6,2.9,6.6,6.6S14.1,29.9,10.5,29.9z"/>
	</g>
</g>
<g id="spektakl" class="st0">
	<g class="st1">
		<rect x="0.3" y="-6.1" class="st2" width="40.4" height="7.7"/>
		<g>
			<circle class="st2" cx="14.4" cy="11.8" r="5.2"/>
			<circle class="st2" cx="26.5" cy="11.8" r="5.2"/>
		</g>
		<g>
			<circle class="st2" cx="7.6" cy="24.9" r="5.2"/>
			<circle class="st2" cx="33.3" cy="24.9" r="5.2"/>
			<circle class="st2" cx="19.6" cy="24.9" r="5.2"/>
		</g>
	</g>
</g>
<g id="monodram-muzyczny" class="st0">
	<rect x="16.5" y="18.2" class="st5" width="7.7" height="17"/>
	<circle class="st5" cx="20.4" cy="9" r="5.2"/>
	<g class="st1">
		<g>
			<rect x="1.5" y="-6.1" class="st2" width="7.7" height="30.4"/>
			<rect x="31.8" y="-6.1" class="st2" width="7.7" height="30.4"/>
		</g>
	</g>
</g>
<g id="premiera" class="st0">
	<rect x="4.2" y="8.8" class="st5" width="7.7" height="18.2"/>
	<rect x="29" y="8.8" class="st5" width="7.7" height="18.2"/>
	<path class="st5" d="M32.9-5.6c-2.8,0-5.2,2.3-5.2,5.2c0,0.1,0,0.3,0,0.4c-0.7,3.5-3.8,6.1-7.5,6c-3.5-0.1-6.4-2.5-7.2-5.7
		c0-0.3,0.1-0.5,0.1-0.8c0-2.8-2.3-5.2-5.2-5.2c-2.8,0-5.2,2.3-5.2,5.2c0,2.8,2.3,5.2,5.2,5.2c1.2,0,2.3-0.4,3.2-1.1
		c1.4,2.4,3.7,4.3,6.4,5.1c0.8,0.2,1.7,0.4,2.6,0.4c4.1,0.1,7.6-2.2,9.4-5.5c0.9,0.7,2,1.2,3.2,1.2c2.8,0,5.2-2.3,5.2-5.2
		C38.1-3.3,35.7-5.6,32.9-5.6z"/>
</g>
<circle class="st2" cx="20.9" cy="9.3" r="9.3"/>
<rect x="18.8" y="2.8" transform="matrix(-1.836970e-16 1 -1 -1.836970e-16 44.5544 2.8497)" class="st2" width="4.2" height="41.7"/>
</svg>
