<?xml version="1.0" encoding="utf-8"?>
<!-- Generator: Adobe Illustrator 26.3.1, SVG Export Plug-In . SVG Version: 6.00 Build 0)  -->
<svg version="1.1" xmlns="http://www.w3.org/2000/svg" xmlns:xlink="http://www.w3.org/1999/xlink" x="0px" y="0px" width="39px"
	 height="39px" viewBox="0 0 39 39" style="enable-background:new 0 0 39 39;" xml:space="preserve">
<style type="text/css">
	.st0{fill:#2D2D2D;}
	.st1{display:none;}
	.st2{display:inline;fill:#D81D4A;}
	.st3{display:inline;}
	.st4{fill:#D81D4A;}
	.st5{display:inline;fill:#2D2D2D;}
</style>
<g id="musical">
	<g>
		<rect x="8.5" y="0.1" class="st0" width="29.7" height="7.7"/>
		<path class="st0" d="M8.5,29.3c-0.8-0.4-1.6-0.7-2.6-0.7c-2.8,0-5.2,2.3-5.2,5.2c0,2.8,2.3,5.2,5.2,5.2c1.2,0,2.4-0.5,3.4-1.3
			c1-0.9,1.5-2,1.7-3.3c0.1-0.7,0.1-1.6,0.1-2.3c0-0.9,0-1.8,0-2.7c0-2.4,0-4.7,0-7.1c0-2.4,0-4.7,0-7.1c0-1.4,0-2.9,0-4.3
			c0-0.1,0-0.2,0-0.4H8.5V29.3z"/>
		<path class="st0" d="M38.3,27.2c-0.1-1.5,0-3.1,0-4.6c0-2.3,0-4.7,0-7c0-1.6,0-3.2,0-4.9c0-0.1,0-0.2,0-0.3h-2.6v13.1
			c-0.7-0.4-1.6-0.7-2.5-0.7c-2.8,0-5.2,2.3-5.2,5.2c0,2.8,2.3,5.2,5.2,5.2c1.5,0,3-0.7,4-1.9c0.9-1.1,1.2-2.5,1.1-3.9
			C38.3,27.3,38.3,27.3,38.3,27.2z"/>
	</g>
</g>
<g id="musical-dla-dzieci" class="st1">
	
		<rect x="19.5" y="-11" transform="matrix(6.123234e-17 -1 1 6.123234e-17 19.461 27.3015)" class="st2" width="7.7" height="29.7"/>
	<g class="st3">
		<g>
			<path class="st4" d="M22.4,46.2c-4.7,0-9-3.2-10.2-7.9l2.9-0.7c1,4,5.1,6.5,9.2,5.4c4-1,6.5-5.1,5.4-9.2l2.9-0.7
				c1.4,5.6-2,11.4-7.6,12.8C24.1,46.1,23.3,46.2,22.4,46.2z"/>
		</g>
	</g>
	<g class="st3">
		<g>
			<path class="st4" d="M8.5,25.8c-0.8-0.4-1.6-0.7-2.6-0.7c-2.8,0-5.2,2.3-5.2,5.2s2.3,5.2,5.2,5.2c2.7,0,4.9-2.1,5.1-4.7h0.1V10.5
				H8.5V25.8z M5.9,32.2c-1.1,0-1.9-0.9-1.9-1.9c0-1.1,0.9-1.9,1.9-1.9c1.1,0,1.9,0.9,1.9,1.9C7.9,31.3,7,32.2,5.9,32.2z"/>
			<path class="st4" d="M38.2,23.7V10.4h-2.6V20c-0.7-0.4-1.6-0.7-2.5-0.7c-2.8,0-5.2,2.3-5.2,5.2s2.3,5.2,5.2,5.2
				c2.8,0,5.2-2.3,5.2-5.2C38.3,24.2,38.3,24,38.2,23.7z M33.2,26.5c-1.1,0-1.9-0.9-1.9-1.9c0-1.1,0.9-1.9,1.9-1.9
				c1.1,0,1.9,0.9,1.9,1.9C35.1,25.7,34.2,26.5,33.2,26.5z"/>
		</g>
	</g>
</g>
<g id="wyklad-warsztat" class="st1">
	<g class="st3">
		
			<rect x="15.7" y="12.7" transform="matrix(-1.836970e-16 1 -1 -1.836970e-16 52.468 13.3609)" class="st0" width="7.7" height="40.4"/>
		
			<rect x="15.7" y="10.6" transform="matrix(-1.836970e-16 1 -1 -1.836970e-16 39.7796 0.6726)" class="st0" width="7.7" height="19.2"/>
		<circle class="st0" cx="19.6" cy="5.4" r="5.2"/>
	</g>
</g>
<g id="wystawa" class="st1">
	<g class="st3">
		
			<rect x="7.5" y="33.5" transform="matrix(-1 -1.224647e-16 1.224647e-16 -1 22.6529 72.5004)" class="st0" width="7.7" height="5.5"/>
		
			<rect x="23.8" y="33.5" transform="matrix(-1 -1.224647e-16 1.224647e-16 -1 55.24 72.5004)" class="st0" width="7.7" height="5.5"/>
	</g>
	<g class="st3">
		<g>
			
				<rect x="0.4" y="0" transform="matrix(-1 -1.224647e-16 1.224647e-16 -1 8.5612 30.4357)" class="st0" width="7.7" height="30.4"/>
			
				<rect x="30.8" y="0" transform="matrix(-1 -1.224647e-16 1.224647e-16 -1 69.3317 30.4357)" class="st0" width="7.7" height="30.4"/>
		</g>
		<circle class="st0" cx="19.5" cy="15.2" r="5.2"/>
	</g>
</g>
<g id="koncert" class="st1">
	<g class="st3">
		<rect x="25.1" y="-2.7" transform="matrix(0.7071 -0.7071 0.7071 0.7071 7.8549 18.5851)" class="st0" width="2.6" height="5.1"/>
		<rect x="37.1" y="9.3" transform="matrix(0.7071 -0.7071 0.7071 0.7071 2.8559 30.6538)" class="st0" width="2.6" height="5.1"/>
		
			<rect x="28.4" y="-5.9" transform="matrix(0.7071 -0.7071 0.7071 0.7071 11.0798 19.9853)" class="st0" width="2.6" height="5.1"/>
		<rect x="40.4" y="6.2" transform="matrix(0.7071 -0.7071 0.7071 0.7071 6.0808 32.0541)" class="st0" width="2.6" height="5.1"/>
		
			<rect x="24.1" y="2.6" transform="matrix(-0.7071 -0.7071 0.7071 -0.7071 40.3124 37.6505)" class="st0" width="7.7" height="15.7"/>
		<path class="st0" d="M9.5,15.1c-7.8,0-14.2,6.3-14.2,14.2S1.7,43.4,9.5,43.4s14.2-6.3,14.2-14.2S17.3,15.1,9.5,15.1z M9.5,35.9
			c-3.6,0-6.6-2.9-6.6-6.6s2.9-6.6,6.6-6.6s6.6,2.9,6.6,6.6S13.1,35.9,9.5,35.9z"/>
	</g>
</g>
<g id="spektakl" class="st1">
	<g class="st3">
		
			<rect x="15.6" y="-16.5" transform="matrix(-1.836970e-16 1 -1 -1.836970e-16 23.2238 -15.7226)" class="st0" width="7.7" height="40.4"/>
		<g>
			<circle class="st0" cx="13.5" cy="17.8" r="5.2"/>
			<circle class="st0" cx="25.5" cy="17.8" r="5.2"/>
		</g>
		<g>
			<circle class="st0" cx="6.6" cy="30.9" r="5.2"/>
			<circle class="st0" cx="32.3" cy="30.9" r="5.2"/>
			<circle class="st0" cx="18.6" cy="30.9" r="5.2"/>
		</g>
	</g>
</g>
<g id="monodram-muzyczny" class="st1">
	<rect x="15.5" y="24.2" class="st5" width="7.7" height="17"/>
	<circle class="st5" cx="19.4" cy="15" r="5.2"/>
	<g class="st3">
		<g>
			
				<rect x="0.4" y="-0.1" transform="matrix(-1 -1.224647e-16 1.224647e-16 -1 8.5612 30.1985)" class="st0" width="7.7" height="30.4"/>
			
				<rect x="30.8" y="-0.1" transform="matrix(-1 -1.224647e-16 1.224647e-16 -1 69.3317 30.1985)" class="st0" width="7.7" height="30.4"/>
		</g>
	</g>
</g>
<g id="goscinny" class="st1">
	<g class="st3">
		<g>
			<path class="st0" d="M16,36.2c-5.3-1.3-9.2-6.2-9.3-11.9l3.5,0c0,4.8,3.9,8.8,8.8,8.8c4.8,0,8.8-4,8.8-8.8l3.5,0
				c0,6.8-5.5,12.3-12.2,12.3C17.9,36.6,16.9,36.4,16,36.2z"/>
		</g>
	</g>
	
		<rect x="15.6" y="-3.5" transform="matrix(-1.836970e-16 1 -1 -1.836970e-16 36.1675 -2.779)" class="st5" width="7.7" height="40.4"/>
	
		<rect x="15.6" y="-5.6" transform="matrix(-1.836970e-16 1 -1 -1.836970e-16 23.4791 -15.4673)" class="st5" width="7.7" height="19.2"/>
</g>
<g id="premiera" class="st1">
	<rect x="3.2" y="14.8" class="st5" width="7.7" height="18.2"/>
	<rect x="28.1" y="14.8" class="st5" width="7.7" height="18.2"/>
	<path class="st5" d="M31.9,0.4c-2.8,0-5.2,2.3-5.2,5.2c0,0.1,0,0.3,0,0.4c-0.7,3.5-3.8,6.1-7.5,6c-3.5-0.1-6.4-2.5-7.2-5.7
		c0-0.3,0.1-0.5,0.1-0.8c0-2.8-2.3-5.2-5.2-5.2c-2.8,0-5.2,2.3-5.2,5.2c0,2.8,2.3,5.2,5.2,5.2c1.2,0,2.3-0.4,3.2-1.1
		c1.4,2.4,3.7,4.3,6.4,5.1c0.8,0.2,1.7,0.4,2.6,0.4c4.1,0.1,7.6-2.2,9.4-5.5c0.9,0.7,2,1.2,3.2,1.2c2.8,0,5.2-2.3,5.2-5.2
		C37.1,2.7,34.8,0.4,31.9,0.4z"/>
</g>
</svg>
