<?xml version="1.0" encoding="utf-8"?>
<!-- Generator: Adobe Illustrator 26.3.1, SVG Export Plug-In . SVG Version: 6.00 Build 0)  -->
<svg version="1.1" id="Layer_1" xmlns="http://www.w3.org/2000/svg" xmlns:xlink="http://www.w3.org/1999/xlink" x="0px" y="0px"
	 width="36px" height="41.7px" viewBox="0 0 36 41.7" style="enable-background:new 0 0 36 41.7;" xml:space="preserve">
<style type="text/css">
	.st0{display:none;}
	.st1{display:inline;}
	.st2{fill:#2D2D2D;}
	.st3{display:inline;fill:#D81D4A;}
	.st4{fill:#D81D4A;}
	.st5{display:inline;fill:#2D2D2D;}
</style>
<g id="musical" class="st0">
	<g class="st1">
		<rect x="6.8" y="2.4" class="st2" width="29.7" height="7.7"/>
		<path class="st2" d="M6.8,31.6c-0.8-0.4-1.6-0.7-2.6-0.7c-2.8,0-5.2,2.3-5.2,5.2c0,2.8,2.3,5.2,5.2,5.2c1.2,0,2.4-0.5,3.4-1.3
			c1-0.9,1.5-2,1.7-3.3c0.1-0.7,0.1-1.6,0.1-2.3c0-0.9,0-1.8,0-2.7c0-2.4,0-4.7,0-7.1s0-4.7,0-7.1c0-1.4,0-2.9,0-4.3
			c0-0.1,0-0.2,0-0.4H6.8V31.6z"/>
		<path class="st2" d="M36.5,29.6c-0.1-1.5,0-3.1,0-4.6c0-2.3,0-4.7,0-7c0-1.6,0-3.2,0-4.9c0-0.1,0-0.2,0-0.3h-2.6v13.1
			c-0.7-0.4-1.6-0.7-2.5-0.7c-2.8,0-5.2,2.3-5.2,5.2c0,2.8,2.3,5.2,5.2,5.2c1.5,0,3-0.7,4-1.9c0.9-1.1,1.2-2.5,1.1-3.9
			C36.5,29.6,36.5,29.6,36.5,29.6z"/>
	</g>
</g>
<g id="musical-dla-dzieci" class="st0">
	<rect x="6.8" y="2.4" class="st3" width="29.7" height="7.7"/>
	<g class="st1">
		<g>
			<path class="st4" d="M20.7,48.6c-4.7,0-9-3.2-10.2-7.9l2.9-0.7c1,4,5.1,6.5,9.2,5.4c4-1,6.5-5.1,5.4-9.2l2.9-0.7
				c1.4,5.6-2,11.4-7.6,12.8C22.4,48.5,21.5,48.6,20.7,48.6z"/>
		</g>
	</g>
	<g class="st1">
		<g>
			<path class="st4" d="M6.8,28.1c-0.8-0.4-1.6-0.7-2.6-0.7c-2.8,0-5.2,2.3-5.2,5.2s2.3,5.2,5.2,5.2c2.7,0,4.9-2.1,5.1-4.7h0.1V12.8
				H6.8V28.1z M4.2,34.5c-1.1,0-1.9-0.9-1.9-1.9c0-1.1,0.9-1.9,1.9-1.9c1.1,0,1.9,0.9,1.9,1.9C6.1,33.7,5.3,34.5,4.2,34.5z"/>
			<path class="st4" d="M36.5,26.1V12.7h-2.6v9.6c-0.7-0.4-1.6-0.7-2.5-0.7c-2.8,0-5.2,2.3-5.2,5.2s2.3,5.2,5.2,5.2
				c2.8,0,5.2-2.3,5.2-5.2C36.6,26.6,36.6,26.3,36.5,26.1z M31.4,28.9c-1.1,0-1.9-0.9-1.9-1.9c0-1.1,0.9-1.9,1.9-1.9
				c1.1,0,1.9,0.9,1.9,1.9C33.4,28,32.5,28.9,31.4,28.9z"/>
		</g>
	</g>
</g>
<g id="wyklad-warsztat" class="st0">
	<g class="st1">
		<rect x="-2.3" y="31.4" class="st2" width="40.4" height="7.7"/>
		<rect x="8.3" y="18.7" class="st2" width="19.2" height="7.7"/>
		<circle class="st2" cx="17.8" cy="7.7" r="5.2"/>
	</g>
</g>
<g id="wystawa" class="st0">
	<g class="st1">
		<rect x="5.8" y="35.8" class="st2" width="7.7" height="5.5"/>
		<rect x="22.1" y="35.8" class="st2" width="7.7" height="5.5"/>
	</g>
	<g class="st1">
		<g>
			<rect x="-1.3" y="2.3" class="st2" width="7.7" height="30.4"/>
			<rect x="29.1" y="2.3" class="st2" width="7.7" height="30.4"/>
		</g>
		<circle class="st2" cx="17.8" cy="17.5" r="5.2"/>
	</g>
</g>
<g id="koncert" class="st0">
	<g class="st1">
		<rect x="23.4" y="-0.5" transform="matrix(0.7071 -0.7071 0.7071 0.7071 5.7852 18.0838)" class="st2" width="2.6" height="5.1"/>
		<rect x="35.5" y="11.6" transform="matrix(0.7071 -0.7071 0.7071 0.7071 0.7284 30.1544)" class="st2" width="2.6" height="5.1"/>
		<rect x="26.7" y="-3.7" transform="matrix(0.7071 -0.7071 0.7071 0.7071 9.0103 19.4781)" class="st2" width="2.6" height="5.1"/>
		<rect x="38.8" y="8.5" transform="matrix(0.7071 -0.7071 0.7071 0.7071 3.9534 31.5487)" class="st2" width="2.6" height="5.1"/>
		
			<rect x="18.4" y="8.9" transform="matrix(0.7071 -0.7071 0.7071 0.7071 -1.3535 22.2789)" class="st2" width="15.7" height="7.7"/>
		<path class="st2" d="M7.8,17.5C0,17.5-6.4,23.8-6.4,31.7s6.3,14.2,14.2,14.2S22,39.6,22,31.7S15.6,17.5,7.8,17.5z M7.8,38.2
			c-3.6,0-6.6-2.9-6.6-6.6S4.1,25,7.8,25s6.6,2.9,6.6,6.6S11.4,38.2,7.8,38.2z"/>
	</g>
</g>
<g id="spektakl" class="st0">
	<g class="st1">
		<rect x="-2.5" y="2.2" class="st2" width="40.4" height="7.7"/>
		<g>
			<circle class="st2" cx="11.7" cy="20.1" r="5.2"/>
			<circle class="st2" cx="23.8" cy="20.1" r="5.2"/>
		</g>
		<g>
			<circle class="st2" cx="4.9" cy="33.2" r="5.2"/>
			<circle class="st2" cx="30.6" cy="33.2" r="5.2"/>
			<circle class="st2" cx="16.9" cy="33.2" r="5.2"/>
		</g>
	</g>
</g>
<g id="monodram-muzyczny" class="st0">
	<rect x="13.8" y="26.5" class="st5" width="7.7" height="17"/>
	<circle class="st5" cx="17.7" cy="17.3" r="5.2"/>
	<g class="st1">
		<g>
			<rect x="-1.3" y="2.2" class="st2" width="7.7" height="30.4"/>
			<rect x="29.1" y="2.2" class="st2" width="7.7" height="30.4"/>
		</g>
	</g>
</g>
<g id="premiera" class="st0">
	<rect x="1.5" y="17.1" class="st5" width="7.7" height="18.2"/>
	<rect x="26.3" y="17.1" class="st5" width="7.7" height="18.2"/>
	<path class="st5" d="M30.2,2.7C27.4,2.7,25,5,25,7.9c0,0.1,0,0.3,0,0.4c-0.7,3.5-3.8,6.1-7.5,6c-3.5-0.1-6.4-2.5-7.2-5.7
		c0-0.3,0.1-0.5,0.1-0.8c0-2.8-2.3-5.2-5.2-5.2C2.4,2.6,0,4.9,0,7.8C0,10.6,2.3,13,5.2,13c1.2,0,2.3-0.4,3.2-1.1
		c1.4,2.4,3.7,4.3,6.4,5.1c0.8,0.2,1.7,0.4,2.6,0.4c4.1,0.1,7.6-2.2,9.4-5.5c0.9,0.7,2,1.2,3.2,1.2c2.8,0,5.2-2.3,5.2-5.2
		C35.4,5,33,2.7,30.2,2.7z"/>
</g>
<path class="st2" d="M35.4,1.6l-2.9,0.7c2.1,8.2-2.9,16.5-11,18.6c-0.6,0.2-1.2,0.3-1.8,0.3l-4.9-7.6L26,6.5L21.8,0L8.4,8.6l4.2,6.5
	l0,0l4.1,6.3c-2.4-0.2-4.7-0.9-6.8-2.1c-3.5-2.1-6-5.4-7-9.4L0,10.7c1.2,4.7,4.2,8.7,8.4,11.2c2.9,1.7,6.1,2.6,9.3,2.6
	c0.3,0,0.6,0,0.9,0l4.5,7c-0.9,0-1.8,0.3-2.6,0.8c-2.4,1.5-3.1,4.7-1.6,7.1s4.7,3.1,7.1,1.6c2.4-1.5,3.1-4.7,1.6-7.1
	c-0.1-0.1-0.2-0.2-0.3-0.3l0,0l-6-9.3c0.3-0.1,0.5-0.1,0.8-0.2C32,21.4,37.9,11.4,35.4,1.6z"/>
</svg>
