<?xml version="1.0" encoding="utf-8"?>
<!-- Generator: Adobe Illustrator 27.8.1, SVG Export Plug-In . SVG Version: 6.00 Build 0)  -->
<svg version="1.1" xmlns="http://www.w3.org/2000/svg" xmlns:xlink="http://www.w3.org/1999/xlink" x="0px" y="0px" width="39px"
	 height="39px" viewBox="0 0 39 39" style="enable-background:new 0 0 39 39;" xml:space="preserve">
<style type="text/css">
	.st0{display:none;}
	.st1{display:inline;}
	.st2{fill:#2D2D2D;}
	.st3{display:inline;fill:#D81D4A;}
	.st4{fill:#D81D4A;}
	.st5{display:inline;fill:#2D2D2D;}
</style>
<g id="edukacja" class="st0">
	<g id="musical">
		<g class="st1">
			<rect x="8.1" y="0.6" class="st2" width="29.7" height="7.7"/>
			<path class="st2" d="M8.1,29.9c-0.8-0.4-1.6-0.7-2.6-0.7c-2.8,0-5.2,2.3-5.2,5.2c0,2.8,2.3,5.2,5.2,5.2c1.2,0,2.4-0.5,3.4-1.3
				c1-0.9,1.5-2,1.7-3.3c0.1-0.7,0.1-1.6,0.1-2.3c0-0.9,0-1.8,0-2.7c0-2.4,0-4.7,0-7.1s0-4.7,0-7.1c0-1.4,0-2.9,0-4.3
				c0-0.1,0-0.2,0-0.4H8.1V29.9z"/>
			<path class="st2" d="M37.8,27.9c-0.1-1.5,0-3.1,0-4.6c0-2.3,0-4.7,0-7c0-1.6,0-3.2,0-4.9c0-0.1,0-0.2,0-0.3h-2.6v13.1
				c-0.7-0.4-1.6-0.7-2.5-0.7c-2.8,0-5.2,2.3-5.2,5.2c0,2.8,2.3,5.2,5.2,5.2c1.5,0,3-0.7,4-1.9c0.9-1.1,1.2-2.5,1.1-3.9
				C37.8,27.9,37.8,27.9,37.8,27.9z"/>
		</g>
	</g>
	<g id="musical-dla-dzieci">
		<rect x="8.2" y="0.6" class="st3" width="29.7" height="7.7"/>
		<g class="st1">
			<g>
				<path class="st4" d="M22,46.8c-4.7,0-9-3.2-10.2-7.9l2.9-0.7c1,4,5.1,6.5,9.2,5.4c4-1,6.5-5.1,5.4-9.2l2.9-0.7
					c1.4,5.6-2,11.4-7.6,12.8C23.8,46.8,22.9,46.8,22,46.8z"/>
			</g>
		</g>
		<g class="st1">
			<g>
				<path class="st4" d="M8.1,26.4c-0.8-0.4-1.6-0.7-2.6-0.7c-2.8,0-5.2,2.3-5.2,5.2s2.3,5.2,5.2,5.2c2.7,0,4.9-2.1,5.1-4.7h0.1V11
					H8.1V26.4z M5.5,32.8c-1.1,0-1.9-0.9-1.9-1.9c0-1.1,0.9-1.9,1.9-1.9c1.1,0,1.9,0.9,1.9,1.9C7.4,31.9,6.6,32.8,5.5,32.8z"/>
				<path class="st4" d="M37.8,24.4V10.9h-2.6v9.6c-0.7-0.4-1.6-0.7-2.5-0.7c-2.8,0-5.2,2.3-5.2,5.2s2.3,5.2,5.2,5.2
					c2.8,0,5.2-2.3,5.2-5.2C37.9,24.9,37.9,24.5,37.8,24.4z M32.8,27.1c-1.1,0-1.9-0.9-1.9-1.9c0-1.1,0.9-1.9,1.9-1.9
					c1.1,0,1.9,0.9,1.9,1.9C34.8,26.2,33.8,27.1,32.8,27.1z"/>
			</g>
		</g>
	</g>
	<g id="wyklad-warsztat">
		<g class="st1">
			<rect x="-1" y="29.6" class="st2" width="40.4" height="7.7"/>
			<rect x="9.6" y="16.9" class="st2" width="19.2" height="7.7"/>
			<circle class="st2" cx="19.1" cy="5.9" r="5.2"/>
		</g>
	</g>
	<g id="wystawa">
		<g class="st1">
			<rect x="7.1" y="34.1" class="st2" width="7.7" height="5.5"/>
			<rect x="23.4" y="34.1" class="st2" width="7.7" height="5.5"/>
		</g>
		<g class="st1">
			<g>
				<rect x="0.1" y="0.6" class="st2" width="7.7" height="30.4"/>
				<rect x="30.4" y="0.6" class="st2" width="7.7" height="30.4"/>
			</g>
			<circle class="st2" cx="19.1" cy="15.8" r="5.2"/>
		</g>
	</g>
	<g id="koncert">
		<g class="st1">
			
				<rect x="24.7" y="-2.2" transform="matrix(0.7071 -0.7071 0.7071 0.7071 7.3879 18.5042)" class="st2" width="2.6" height="5.1"/>
			<rect x="36.9" y="9.9" transform="matrix(0.7071 -0.7071 0.7071 0.7071 2.3542 30.6344)" class="st2" width="2.6" height="5.1"/>
			<rect x="28" y="-5.4" transform="matrix(0.7071 -0.7071 0.7071 0.7071 10.6173 19.8969)" class="st2" width="2.6" height="5.1"/>
			<rect x="40.2" y="6.7" transform="matrix(0.7071 -0.7071 0.7071 0.7071 5.5836 32.0271)" class="st2" width="2.6" height="5.1"/>
			
				<rect x="19.8" y="7.2" transform="matrix(0.7071 -0.7071 0.7071 0.7071 0.2634 22.7758)" class="st2" width="15.7" height="7.7"/>
			<path class="st2" d="M9.1,15.8c-7.8,0-14.2,6.3-14.2,14.2S1.2,44.2,9.1,44.2s14.2-6.3,14.2-14.2S16.9,15.8,9.1,15.8z M9.1,36.4
				c-3.6,0-6.6-2.9-6.6-6.6s2.9-6.6,6.6-6.6s6.6,2.9,6.6,6.6C15.8,33.6,12.8,36.4,9.1,36.4z"/>
		</g>
	</g>
	<g id="spektakl">
		<g class="st1">
			<rect x="-1.1" y="0.4" class="st2" width="40.4" height="7.7"/>
			<g>
				<circle class="st2" cx="13" cy="18.4" r="5.2"/>
				<circle class="st2" cx="25.1" cy="18.4" r="5.2"/>
			</g>
			<g>
				<circle class="st2" cx="6.2" cy="31.4" r="5.2"/>
				<circle class="st2" cx="31.9" cy="31.4" r="5.2"/>
				<circle class="st2" cx="18.2" cy="31.4" r="5.2"/>
			</g>
		</g>
	</g>
	<g id="monodram-muzyczny">
		<rect x="15.1" y="24.8" class="st5" width="7.7" height="17"/>
		<circle class="st5" cx="19" cy="15.5" r="5.2"/>
		<g class="st1">
			<g>
				<rect x="0.1" y="0.4" class="st2" width="7.7" height="30.4"/>
				<rect x="30.4" y="0.4" class="st2" width="7.7" height="30.4"/>
			</g>
		</g>
	</g>
	<g id="premiera">
		<rect x="2.8" y="15.3" class="st5" width="7.7" height="18.2"/>
		<rect x="27.6" y="15.3" class="st5" width="7.7" height="18.2"/>
		<path class="st5" d="M31.6,0.9c-2.8,0-5.2,2.3-5.2,5.2c0,0.1,0,0.3,0,0.4c-0.7,3.5-3.8,6.1-7.5,6c-3.5-0.1-6.4-2.5-7.2-5.7
			c0-0.3,0.1-0.5,0.1-0.8c0-2.8-2.3-5.2-5.2-5.2C3.7,0.8,1.3,3.1,1.3,6c0,2.8,2.3,5.2,5.2,5.2c1.2,0,2.3-0.4,3.2-1.1
			c1.4,2.4,3.7,4.3,6.4,5.1c0.8,0.2,1.7,0.4,2.6,0.4c4.1,0.1,7.6-2.2,9.4-5.5c0.9,0.7,2,1.2,3.2,1.2c2.8,0,5.2-2.3,5.2-5.2
			C36.8,3.2,34.3,0.9,31.6,0.9z"/>
	</g>
	<rect x="-1.4" y="7.5" class="st5" width="41.7" height="1.6"/>
	<rect x="-1.3" y="15" class="st5" width="41.7" height="1.6"/>
	<rect x="-1.3" y="22.4" class="st5" width="41.7" height="1.6"/>
	<rect x="-1.4" y="29.8" class="st5" width="41.7" height="1.6"/>
	<rect x="-1.3" y="37.3" class="st5" width="41.7" height="1.6"/>
	<circle class="st5" cx="11.4" cy="23.4" r="5.2"/>
	<rect x="14" y="0.1" class="st5" width="2.6" height="23.7"/>
</g>
<g id="warsztat" class="st0">
	<g class="st1">
		<rect x="21" y="31.3" class="st2" width="18.1" height="7.8"/>
		<ellipse class="st2" cx="30.1" cy="20.3" rx="4.9" ry="5.2"/>
		<rect x="-0.2" y="17.3" class="st2" width="18.1" height="22"/>
		<ellipse class="st2" cx="8.9" cy="6.4" rx="4.9" ry="5.2"/>
	</g>
</g>
<g id="spektakl_muzyczny" class="st0">
	<g class="st1">
		<rect x="16.1" y="0" class="st2" width="7.2" height="15.8"/>
		<circle class="st2" cx="7.6" cy="6" r="4.8"/>
		<path class="st2" d="M31.4,1.1c-2.6,0-4.8,2.1-4.8,4.8s2.1,4.8,4.8,4.8s4.8-2.1,4.8-4.8S34.1,1.1,31.4,1.1z M31.4,7.7
			c-1,0-1.8-0.8-1.8-1.8c0-1,0.8-1.8,1.8-1.8c1,0,1.8,0.8,1.8,1.8C33.3,6.9,32.5,7.7,31.4,7.7z"/>
		<path class="st2" d="M19.6,18.3c-5.7,0-10.2,4.6-10.2,10.2S14,38.8,19.6,38.8s10.2-4.6,10.2-10.2S25.3,18.3,19.6,18.3z M19.6,33.3
			c-2.6,0-4.7-2.1-4.7-4.7s2.1-4.7,4.7-4.7s4.7,2.1,4.7,4.7C24.4,31.2,22.2,33.3,19.6,33.3z"/>
	</g>
</g>
<g id="spektakl_familijny" class="st0">
	<g class="st1">
		<g>
			<rect x="3.6" y="29.7" class="st2" width="7.3" height="7.7"/>
			<rect x="3.6" y="1.6" class="st2" width="7.3" height="7.7"/>
		</g>
		<path class="st2" d="M17,1.3c10.1-0.1,18.3,8,18.4,18.1c0.1,10.1-8,18.3-18.1,18.4"/>
	</g>
</g>
<g id="salon_poezji" class="st0">
	<g class="st1">
		<rect x="2.2" y="2" class="st2" width="6.8" height="34.6"/>
		<rect x="13.8" y="6.2" class="st2" width="6.8" height="30.4"/>
		<polygon class="st2" points="22.7,11.3 29.1,8.9 36.8,34.5 30.4,37 		"/>
	</g>
</g>
<g id="premiera_00000039845462209195030350000001554899127189298574_">
	<g>
		<rect x="2.7" y="14.6" class="st2" width="3.8" height="22.4"/>
		<path class="st2" d="M34.2,2c-1.4,0-2.7,0.7-3.6,1.8c-1.2,1.5-0.8,3.2-1.1,5c-0.2,1.4-1,3-1.9,4.1C25.8,15.4,23,17,20,17.1
			c-2.7,0.2-5.4-0.9-7.3-2.8c-1.2-1.2-2.1-2.6-2.7-4.3C9.4,8.2,9.6,6.1,8.7,4.4C8,2.9,6.4,2,4.8,2C2.2,2,0.2,4.2,0.2,7
			c0,2.7,2.1,5,4.7,5c1.1,0,2-0.4,2.8-1.1c0.7,2,1.9,3.9,3.4,5.4c2.4,2.3,5.5,3.6,8.7,3.6c0.2,0,0.4,0,0.6,0
			c5.2-0.3,9.6-3.9,11.4-8.8c0.7,0.5,1.6,0.8,2.5,0.8c2.5,0,4.7-2.2,4.7-5C38.8,4.2,36.8,2,34.2,2z"/>
		<rect x="32.1" y="14.6" class="st2" width="3.8" height="22.4"/>
	</g>
</g>
<g id="pokaz" class="st0">
	<path class="st5" d="M35.6,1.5l-2.7,0.6c1.9,7.6-2.7,15.3-10.2,17.2c-0.6,0.2-1.1,0.3-1.7,0.3l-4.5-7l10.4-6.6l-3.9-6L10.6,8l3.9,6
		l3.8,5.8c-2.2-0.2-4.4-0.8-6.3-1.9c-3.2-1.9-5.6-5-6.5-8.7L2.8,10c1.1,4.4,3.9,8.1,7.8,10.4c2.7,1.6,5.7,2.4,8.6,2.4
		c0.3,0,0.6,0,0.8,0l4.2,6.5c-0.8,0-1.7,0.3-2.4,0.7c-2.2,1.4-2.9,4.4-1.5,6.6c1.4,2.2,4.4,2.9,6.6,1.5c1.3-0.8,2.1-2.3,2.2-3.8
		c0.2-2.3-1.7-4.2-2.9-6c-1.2-1.9-2.5-3.8-3.7-5.7c0.3-0.1,0.5-0.1,0.7-0.2C32.4,19.9,37.9,10.6,35.6,1.5z"/>
</g>
<g id="monodram" class="st0">
	<circle class="st5" cx="20.2" cy="16.2" r="9.3"/>
	<rect x="-0.7" y="28.5" class="st5" width="41.7" height="4.2"/>
</g>
<g id="koncert_familijny" class="st0">
	<g class="st1">
		<path class="st2" d="M35.3,30.8L35.3,30.8L26.5,17l8.4-5.4l-4.2-6.5l-10.5,6.8l2,3.2L30.5,28c-0.9,0-1.8,0.3-2.6,0.8
			c-2.4,1.5-3.1,4.7-1.6,7.1c1.5,2.4,4.7,3.1,7.1,1.6C35.8,36.1,36.5,33.1,35.3,30.8z"/>
		<path class="st2" d="M12.7,19.4L12.7,19.4l8.5-17.9l-2.4-1.1l-6.3,13.5c-0.5-0.7-1.2-1.4-2-1.8c-2.6-1.2-5.6-0.1-6.9,2.5
			c-1.2,2.6-0.1,5.6,2.5,6.9C8.5,22.6,11.3,21.6,12.7,19.4z"/>
	</g>
</g>
<g id="koncert_edukacyjny" class="st0">
	<g class="st1">
		<circle class="st2" cx="31.2" cy="10.4" r="5.2"/>
		<rect x="2.6" y="9.6" class="st2" width="7.7" height="24.2"/>
		<rect x="14.9" y="16" class="st2" width="7.7" height="17.7"/>
		<rect x="26.8" y="20.6" class="st2" width="7.7" height="13.1"/>
	</g>
</g>
<g id="festiwal" class="st0">
	<g class="st1">
		<rect x="2.1" y="19.9" class="st2" width="26.5" height="14.6"/>
		<rect x="31.3" y="22.4" class="st2" width="6.1" height="10.2"/>
		<circle class="st2" cx="22.8" cy="10.4" r="5.9"/>
		<circle class="st2" cx="7.5" cy="10.5" r="5.9"/>
	</g>
</g>
<g id="edukacyjny" class="st0">
	<g id="goscinny" class="st1">
		<g>
			<g>
				<path class="st2" d="M15.9,37.1c-5.3-1.3-9.2-6.2-9.3-11.9h3.5c0,4.8,3.9,8.8,8.8,8.8c4.8,0,8.8-4,8.8-8.8h3.5
					c0,6.8-5.5,12.3-12.2,12.3C17.9,37.5,16.9,37.4,15.9,37.1z"/>
			</g>
		</g>
		<rect x="-0.7" y="13.8" class="st2" width="40.4" height="7.7"/>
		<rect x="9.9" y="1.1" class="st2" width="19.2" height="7.7"/>
	</g>
</g>
<g id="koncert_00000132085226507862638870000009764314829319038123_" class="st0">
	<rect x="21.2" y="3.5" transform="matrix(0.7071 -0.7071 0.7071 0.7071 2.4122 17.502)" class="st5" width="2.4" height="4.6"/>
	<rect x="32.1" y="14.5" transform="matrix(0.7071 -0.7071 0.7071 0.7071 -2.111 28.4785)" class="st5" width="2.4" height="4.6"/>
	<rect x="24.2" y="0.7" transform="matrix(0.7071 -0.7071 0.7071 0.7071 5.3113 18.831)" class="st5" width="2.4" height="4.6"/>
	<rect x="35.1" y="11.6" transform="matrix(0.7071 -0.7071 0.7071 0.7071 0.8146 29.7433)" class="st5" width="2.4" height="4.6"/>
	<path class="st5" d="M34.1,9.9l-4.9-4.9l-9.7,9.7c-1.8-1-4-1.6-6.2-1.6C6.2,13,0.4,18.7,0.4,25.9s5.7,12.9,12.9,12.9
		s12.9-5.7,12.9-12.9c0-2.3-0.6-4.5-1.7-6.4L34.1,9.9z M13.3,31.8c-3.3,0-5.9-2.6-5.9-5.9s2.6-6,6-6s6,2.6,6,6
		C19.3,29.3,16.6,31.8,13.3,31.8z"/>
</g>
<g id="monodram_00000112595544190519136040000001529538503238888862_" class="st0">
	<g id="monodram-muzyczny_00000127755214011083108080000005504588030606926485_" class="st1">
		<rect x="15.5" y="22" class="st2" width="7.7" height="17"/>
		<circle class="st2" cx="19.4" cy="12.8" r="5.2"/>
		<g>
			<g>
				<rect x="0.5" y="-2.3" class="st2" width="7.7" height="30.4"/>
				<rect x="30.8" y="-2.3" class="st2" width="7.7" height="30.4"/>
			</g>
		</g>
	</g>
</g>
<g id="musical_dla_dzieci" class="st0">
	<rect x="8.4" y="0.5" class="st3" width="29.7" height="7.7"/>
	<g class="st1">
		<g>
			<path class="st4" d="M20.5,38.8c-4.7,0-9-3.2-10.2-7.9l2.9-0.7c1,4,5.1,6.5,9.2,5.4c4-1,6.5-5.1,5.4-9.2l2.9-0.7
				c1.4,5.6-2,11.4-7.6,12.8C22.2,38.7,21.4,38.8,20.5,38.8z"/>
		</g>
	</g>
	<g class="st1">
		<g>
			<path class="st4" d="M8.4,20.4c-0.8-0.4-1.6-0.7-2.6-0.7c-2.8,0-5.2,2.3-5.2,5.2c0,2.9,2.3,5.2,5.2,5.2c2.2,0,4.2-1.6,4.9-3.7
				c0.5-1.6,0.3-3.5,0.3-5.2c0-3.5,0-7.1,0-10.6c0-0.2,0-0.5,0-0.7H8.4V20.4z M5.8,26.8c-1.1,0-1.9-0.9-1.9-1.9
				c0-1.1,0.9-1.9,1.9-1.9c1.1,0,1.9,0.9,1.9,1.9C7.8,25.9,6.9,26.8,5.8,26.8z"/>
			<path class="st4" d="M38.2,18.3c0-0.5,0-1.1-0.1-1.6c0-0.6,0-6.9,0-6.9c0,0-2.6,0-2.6,0v4.8c-0.7-0.4-1.6-0.7-2.5-0.7
				c-2.8,0-5.2,2.3-5.2,5.2c0,2.9,2.3,5.2,5.2,5.2c1.7,0,3.3-0.9,4.3-2.3C38,20.8,38.2,19.6,38.2,18.3z M33.1,21.1
				c-1.1,0-1.9-0.9-1.9-1.9c0-1.1,0.9-1.9,1.9-1.9c1.1,0,1.9,0.9,1.9,1.9C35,20.3,34.1,21.1,33.1,21.1z"/>
		</g>
	</g>
</g>
<g id="musical_00000020378449555159311690000011158705996151581341_" class="st0">
	<rect x="8.6" y="0.1" class="st5" width="29.7" height="7.7"/>
	<path class="st5" d="M8.6,28.1C7.8,27.7,7,27.4,6,27.4c-2.8,0-5.2,2.3-5.2,5.2c0,2.8,2.3,5.2,5.2,5.2c1.2,0,2.4-0.5,3.4-1.3
		c1-0.9,1.5-2,1.7-3.3c0.1-0.7,0.1-1.6,0.1-2.3c0-0.9,0-1.8,0-2.7c0-2.4,0-4.7,0-7.1s0-4.7,0-7.1c0-1.4,0-1.9,0-3.3
		c0-0.1,0-0.2,0-0.4H8.6V28.1z"/>
	<path class="st5" d="M38.4,26c-0.1-1.5,0-3.1,0-4.6c0-2.3,0-4.7,0-7c0-1.6,0-2.2,0-3.9c0-0.1,0-0.2,0-0.3h-2.6v12.1
		c-0.7-0.4-1.6-0.7-2.5-0.7c-2.8,0-5.2,2.3-5.2,5.2c0,2.8,2.3,5.2,5.2,5.2c1.5,0,3-0.7,4-1.9c0.9-1.1,1.2-2.5,1.1-3.9
		C38.4,26.1,38.4,26.1,38.4,26z"/>
</g>
<g id="operetka_00000006699770087838417400000014113532126148262069_" class="st0">
	<g id="operetka" class="st1">
		<circle class="st2" cx="15.2" cy="7.7" r="7.1"/>
		<circle class="st2" cx="30.8" cy="7.7" r="7.1"/>
		<rect x="1" y="0.1" class="st2" width="4.2" height="38.9"/>
	</g>
</g>
<g id="spektakl_baletowy" class="st0">
	<g id="spektakl-baletowy" class="st1">
		<g>
			<path class="st2" d="M3.3,42.2c-0.1-8.7,6.9-15.7,15.5-15.8c8.7-0.1,15.7,6.9,15.8,15.5"/>
			<rect x="9.4" y="15.1" class="st2" width="19.2" height="10.2"/>
			<circle class="st2" cx="19" cy="8.6" r="5.2"/>
			<circle class="st2" cx="11.9" cy="2.9" r="2.6"/>
		</g>
	</g>
</g>
<g id="spektakl_00000013180651804621884680000001422566639138025370_" class="st0">
	<g id="spektakl_00000152983191390929420420000008436630361902504611_" class="st1">
		<g>
			<rect x="-0.7" y="1.4" class="st2" width="40.4" height="7.7"/>
			<g>
				<circle class="st2" cx="13.5" cy="19.3" r="5.2"/>
				<circle class="st2" cx="25.6" cy="19.3" r="5.2"/>
			</g>
			<g>
				<circle class="st2" cx="6.7" cy="32.4" r="5.2"/>
				<circle class="st2" cx="32.4" cy="32.4" r="5.2"/>
				<circle class="st2" cx="18.7" cy="32.4" r="5.2"/>
			</g>
		</g>
	</g>
</g>
<g id="widowisko_muzyczne" class="st0">
	<g id="widowisko-muzyczne" class="st1">
		<circle class="st2" cx="5.4" cy="5.5" r="5.2"/>
		<rect x="31" y="0.3" class="st2" width="13.5" height="7.7"/>
		<path class="st2" d="M18.7,10.3h-2.6v18.9c-0.8-0.4-1.6-0.7-2.6-0.7c-2.8,0-5.2,2.3-5.2,5.2c0,2.9,2.3,5.2,5.2,5.2
			c2.3,0,4-1.5,4.8-3.6c0.5-1.3,0.4-2.5,0.4-3.9c0-3.4,0-6.9,0-10.3C18.7,17.5,18.7,13.9,18.7,10.3z"/>
		<path class="st2" d="M33.8,27.1c0-0.8,0-1.6,0-2.4c0-3.6,0-7.2,0-10.8c0-1.2,0-2.4,0-3.6h-2.6v13.1c-0.7-0.4-1.6-0.7-2.5-0.7
			c-2.8,0-5.2,2.3-5.2,5.2c0,2.8,2.3,5.2,5.2,5.2c2.3,0,4.1-1.4,4.8-3.6C33.8,28.7,33.8,27.9,33.8,27.1z"/>
	</g>
</g>
<g id="wystawa_00000060012093815064824570000012485706849789292692_" class="st0">
	<g id="wystawa_00000173126288994236338830000006683544263792706459_" class="st1">
		<g>
			<rect x="7.5" y="33.5" class="st2" width="7.7" height="5.5"/>
			<rect x="23.7" y="33.5" class="st2" width="7.7" height="5.5"/>
		</g>
		<g>
			<g>
				<rect x="0.5" class="st2" width="7.7" height="30.4"/>
				<rect x="30.8" class="st2" width="7.7" height="30.4"/>
			</g>
			<circle class="st2" cx="19.5" cy="15.2" r="5.2"/>
		</g>
	</g>
</g>
<g id="wyklad" class="st0">
	<g id="wyklad-warsztat_00000159455379002970205090000015602296651598155170_" class="st1">
		<g>
			<rect x="-0.7" y="31.2" class="st2" width="40.4" height="7.7"/>
			<rect x="9.9" y="18.5" class="st2" width="19.2" height="7.7"/>
			<circle class="st2" cx="19.5" cy="7.5" r="5.2"/>
		</g>
	</g>
</g>
</svg>
