<?xml version="1.0" encoding="utf-8"?>
<!-- Generator: Adobe Illustrator 26.3.1, SVG Export Plug-In . SVG Version: 6.00 Build 0)  -->
<svg version="1.1" xmlns="http://www.w3.org/2000/svg" xmlns:xlink="http://www.w3.org/1999/xlink" x="0px" y="0px" width="40.5px"
	 height="33.3px" viewBox="0 0 40.5 33.3" style="enable-background:new 0 0 40.5 33.3;" xml:space="preserve">
<style type="text/css">
	.st0{display:none;}
	.st1{display:inline;}
	.st2{fill:#2D2D2D;}
	.st3{display:inline;fill:#D81D4A;}
	.st4{fill:#D81D4A;}
	.st5{display:inline;fill:#2D2D2D;}
</style>
<g id="musical" class="st0">
	<g class="st1">
		<rect x="9.4" y="0.3" class="st2" width="29.7" height="7.7"/>
		<path class="st2" d="M9.4,29.5c-0.8-0.4-1.6-0.7-2.6-0.7c-2.8,0-5.2,2.3-5.2,5.2c0,2.8,2.3,5.2,5.2,5.2c1.2,0,2.4-0.5,3.4-1.3
			c1-0.9,1.5-2,1.7-3.3c0.1-0.7,0.1-1.6,0.1-2.3c0-0.9,0-1.8,0-2.7c0-2.4,0-4.7,0-7.1c0-2.4,0-4.7,0-7.1c0-1.4,0-2.9,0-4.3
			c0-0.1,0-0.2,0-0.4H9.4V29.5z"/>
		<path class="st2" d="M39.1,27.5c-0.1-1.5,0-3.1,0-4.6c0-2.3,0-4.7,0-7c0-1.6,0-3.2,0-4.9c0-0.1,0-0.2,0-0.3h-2.6v13.1
			c-0.7-0.4-1.6-0.7-2.5-0.7c-2.8,0-5.2,2.3-5.2,5.2c0,2.8,2.3,5.2,5.2,5.2c1.5,0,3-0.7,4-1.9c0.9-1.1,1.2-2.5,1.1-3.9
			C39.1,27.5,39.1,27.5,39.1,27.5z"/>
	</g>
</g>
<g id="musical-dla-dzieci" class="st0">
	
		<rect x="20.4" y="-10.7" transform="matrix(6.123234e-17 -1 1 6.123234e-17 20.1215 28.4024)" class="st3" width="7.7" height="29.7"/>
	<g class="st1">
		<g>
			<path class="st4" d="M23.3,46.5c-4.7,0-9-3.2-10.2-7.9l2.9-0.7c1,4,5.1,6.5,9.2,5.4c4-1,6.5-5.1,5.4-9.2l2.9-0.7
				c1.4,5.6-2,11.4-7.6,12.8C25,46.4,24.1,46.5,23.3,46.5z"/>
		</g>
	</g>
	<g class="st1">
		<g>
			<path class="st4" d="M9.4,26c-0.8-0.4-1.6-0.7-2.6-0.7c-2.8,0-5.2,2.3-5.2,5.2s2.3,5.2,5.2,5.2c2.7,0,4.9-2.1,5.1-4.7H12V10.7
				H9.4V26z M6.8,32.4c-1.1,0-1.9-0.9-1.9-1.9c0-1.1,0.9-1.9,1.9-1.9c1.1,0,1.9,0.9,1.9,1.9C8.7,31.6,7.9,32.4,6.8,32.4z"/>
			<path class="st4" d="M39.1,24V10.6h-2.6v9.6c-0.7-0.4-1.6-0.7-2.5-0.7c-2.8,0-5.2,2.3-5.2,5.2s2.3,5.2,5.2,5.2
				c2.8,0,5.2-2.3,5.2-5.2C39.2,24.5,39.2,24.2,39.1,24z M34,26.8c-1.1,0-1.9-0.9-1.9-1.9c0-1.1,0.9-1.9,1.9-1.9
				c1.1,0,1.9,0.9,1.9,1.9C36,25.9,35.1,26.8,34,26.8z"/>
		</g>
	</g>
</g>
<g id="wyklad-warsztat" class="st0">
	<g class="st1">
		
			<rect x="16.6" y="12.9" transform="matrix(-1.836970e-16 1 -1 -1.836970e-16 53.5689 12.7004)" class="st2" width="7.7" height="40.4"/>
		
			<rect x="16.6" y="10.8" transform="matrix(-1.836970e-16 1 -1 -1.836970e-16 40.8805 1.203396e-02)" class="st2" width="7.7" height="19.2"/>
		<circle class="st2" cx="20.4" cy="5.6" r="5.2"/>
	</g>
</g>
<g id="wystawa" class="st0">
	<g class="st1">
		
			<rect x="8.3" y="33.7" transform="matrix(-1 -1.224647e-16 1.224647e-16 -1 24.4143 72.9408)" class="st2" width="7.7" height="5.5"/>
		
			<rect x="24.6" y="33.7" transform="matrix(-1 -1.224647e-16 1.224647e-16 -1 57.0014 72.9408)" class="st2" width="7.7" height="5.5"/>
	</g>
	<g class="st1">
		<g>
			
				<rect x="1.3" y="0.2" transform="matrix(-1 -1.224647e-16 1.224647e-16 -1 10.3226 30.8761)" class="st2" width="7.7" height="30.4"/>
			
				<rect x="31.7" y="0.2" transform="matrix(-1 -1.224647e-16 1.224647e-16 -1 71.0931 30.8761)" class="st2" width="7.7" height="30.4"/>
		</g>
		<circle class="st2" cx="20.4" cy="15.4" r="5.2"/>
	</g>
</g>
<g id="koncert" class="st0">
	<g class="st1">
		<rect x="26" y="-2.5" transform="matrix(0.7071 -0.7071 0.7071 0.7071 7.9572 19.2723)" class="st2" width="2.6" height="5.1"/>
		<rect x="38" y="9.6" transform="matrix(0.7071 -0.7071 0.7071 0.7071 2.9582 31.3411)" class="st2" width="2.6" height="5.1"/>
		
			<rect x="29.3" y="-5.7" transform="matrix(0.7071 -0.7071 0.7071 0.7071 11.1821 20.6726)" class="st2" width="2.6" height="5.1"/>
		<rect x="41.3" y="6.4" transform="matrix(0.7071 -0.7071 0.7071 0.7071 6.1831 32.7414)" class="st2" width="2.6" height="5.1"/>
		
			<rect x="25" y="2.8" transform="matrix(-0.7071 -0.7071 0.7071 -0.7071 41.6602 38.6491)" class="st2" width="7.7" height="15.7"/>
		<path class="st2" d="M10.4,15.4c-7.8,0-14.2,6.3-14.2,14.2s6.3,14.2,14.2,14.2s14.2-6.3,14.2-14.2S18.2,15.4,10.4,15.4z
			 M10.4,36.1c-3.6,0-6.6-2.9-6.6-6.6s2.9-6.6,6.6-6.6s6.6,2.9,6.6,6.6S14,36.1,10.4,36.1z"/>
	</g>
</g>
<g id="spektakl" class="st0">
	<g class="st1">
		
			<rect x="16.5" y="-16.2" transform="matrix(-1.836970e-16 1 -1 -1.836970e-16 24.3247 -16.3832)" class="st2" width="7.7" height="40.4"/>
		<g>
			<circle class="st2" cx="14.3" cy="18" r="5.2"/>
			<circle class="st2" cx="26.4" cy="18" r="5.2"/>
		</g>
		<g>
			<circle class="st2" cx="7.5" cy="31.1" r="5.2"/>
			<circle class="st2" cx="33.2" cy="31.1" r="5.2"/>
			<circle class="st2" cx="19.5" cy="31.1" r="5.2"/>
		</g>
	</g>
</g>
<g id="monodram-muzyczny" class="st0">
	<rect x="16.4" y="24.4" class="st5" width="7.7" height="17"/>
	<circle class="st5" cx="20.3" cy="15.2" r="5.2"/>
	<g class="st1">
		<g>
			
				<rect x="1.3" y="0.1" transform="matrix(-1 -1.224647e-16 1.224647e-16 -1 10.3226 30.6389)" class="st2" width="7.7" height="30.4"/>
			
				<rect x="31.7" y="0.1" transform="matrix(-1 -1.224647e-16 1.224647e-16 -1 71.0931 30.6389)" class="st2" width="7.7" height="30.4"/>
		</g>
	</g>
</g>
<g id="goscinny" class="st0">
	<g class="st1">
		<g>
			<path class="st2" d="M16.8,36.4c-5.3-1.3-9.2-6.2-9.3-11.9l3.5,0c0,4.8,3.9,8.8,8.8,8.8c4.8,0,8.8-4,8.8-8.8l3.5,0
				c0,6.8-5.5,12.3-12.2,12.3C18.8,36.8,17.8,36.7,16.8,36.4z"/>
		</g>
	</g>
	
		<rect x="16.5" y="-3.3" transform="matrix(-1.836970e-16 1 -1 -1.836970e-16 37.2684 -3.4395)" class="st5" width="7.7" height="40.4"/>
	
		<rect x="16.5" y="-5.4" transform="matrix(-1.836970e-16 1 -1 -1.836970e-16 24.58 -16.1278)" class="st5" width="7.7" height="19.2"/>
</g>
<g id="premiera">
	<rect x="4.1" y="15" class="st2" width="7.7" height="18.2"/>
	<rect x="28.9" y="15" class="st2" width="7.7" height="18.2"/>
	<path class="st2" d="M32.8,0.6c-2.8,0-5.2,2.3-5.2,5.2c0,0.1,0,0.3,0,0.4c-0.7,3.5-3.8,6.1-7.5,6c-3.5-0.1-6.4-2.5-7.2-5.7
		c0-0.3,0.1-0.5,0.1-0.8c0-2.8-2.3-5.2-5.2-5.2c-2.8,0-5.2,2.3-5.2,5.2c0,2.8,2.3,5.2,5.2,5.2c1.2,0,2.3-0.4,3.2-1.1
		c1.4,2.4,3.7,4.3,6.4,5.1c0.8,0.2,1.7,0.4,2.6,0.4c4.1,0.1,7.6-2.2,9.4-5.5c0.9,0.7,2,1.2,3.2,1.2c2.8,0,5.2-2.3,5.2-5.2
		C38,2.9,35.6,0.6,32.8,0.6z"/>
</g>
</svg>
