<?xml version="1.0" encoding="utf-8"?>
<!-- Generator: Adobe Illustrator 26.3.1, SVG Export Plug-In . SVG Version: 6.00 Build 0)  -->
<svg version="1.1" id="Layer_1" xmlns="http://www.w3.org/2000/svg" xmlns:xlink="http://www.w3.org/1999/xlink" x="0px" y="0px"
	 width="43.2px" height="36.3px" viewBox="0 0 43.2 36.3" style="enable-background:new 0 0 43.2 36.3;" xml:space="preserve">
<style type="text/css">
	.st0{display:none;}
	.st1{display:inline;}
	.st2{fill:#2D2D2D;}
	.st3{display:inline;fill:#D81D4A;}
	.st4{fill:#D81D4A;}
	.st5{display:inline;fill:#2D2D2D;}
</style>
<g id="musical" class="st0">
	<g class="st1">
		<rect x="10.3" y="-0.7" class="st2" width="29.7" height="7.7"/>
		<path class="st2" d="M10.3,28.5c-0.8-0.4-1.6-0.7-2.6-0.7c-2.8,0-5.2,2.3-5.2,5.2c0,2.8,2.3,5.2,5.2,5.2c1.2,0,2.4-0.5,3.4-1.3
			c1-0.9,1.5-2,1.7-3.3c0.1-0.7,0.1-1.6,0.1-2.3c0-0.9,0-1.8,0-2.7c0-2.4,0-4.7,0-7.1s0-4.7,0-7.1c0-1.4,0-2.9,0-4.3
			c0-0.1,0-0.2,0-0.4h-2.6V28.5z"/>
		<path class="st2" d="M40,26.5c-0.1-1.5,0-3.1,0-4.6c0-2.3,0-4.7,0-7c0-1.6,0-3.2,0-4.9c0-0.1,0-0.2,0-0.3h-2.6v13.1
			c-0.7-0.4-1.6-0.7-2.5-0.7c-2.8,0-5.2,2.3-5.2,5.2c0,2.8,2.3,5.2,5.2,5.2c1.5,0,3-0.7,4-1.9c0.9-1.1,1.2-2.5,1.1-3.9
			C40,26.5,40,26.5,40,26.5z"/>
	</g>
</g>
<g id="musical-dla-dzieci" class="st0">
	<rect x="10.3" y="-0.7" class="st3" width="29.7" height="7.7"/>
	<g class="st1">
		<g>
			<path class="st4" d="M24.2,45.5c-4.7,0-9-3.2-10.2-7.9l2.9-0.7c1,4,5.1,6.5,9.2,5.4c4-1,6.5-5.1,5.4-9.2l2.9-0.7
				c1.4,5.6-2,11.4-7.6,12.8C25.9,45.4,25,45.5,24.2,45.5z"/>
		</g>
	</g>
	<g class="st1">
		<g>
			<path class="st4" d="M10.3,25c-0.8-0.4-1.6-0.7-2.6-0.7c-2.8,0-5.2,2.3-5.2,5.2s2.3,5.2,5.2,5.2c2.7,0,4.9-2.1,5.1-4.7h0.1V9.7
				h-2.6V25z M7.7,31.4c-1.1,0-1.9-0.9-1.9-1.9c0-1.1,0.9-1.9,1.9-1.9c1.1,0,1.9,0.9,1.9,1.9C9.6,30.6,8.8,31.4,7.7,31.4z"/>
			<path class="st4" d="M40,23V9.6h-2.6v9.6c-0.7-0.4-1.6-0.7-2.5-0.7c-2.8,0-5.2,2.3-5.2,5.2s2.3,5.2,5.2,5.2
				c2.8,0,5.2-2.3,5.2-5.2C40.1,23.5,40.1,23.2,40,23z M34.9,25.8c-1.1,0-1.9-0.9-1.9-1.9c0-1.1,0.9-1.9,1.9-1.9
				c1.1,0,1.9,0.9,1.9,1.9C36.9,24.9,36,25.8,34.9,25.8z"/>
		</g>
	</g>
</g>
<g id="wyklad-warsztat" class="st0">
	<g class="st1">
		<rect x="1.1" y="28.3" class="st2" width="40.4" height="7.7"/>
		<rect x="11.8" y="15.6" class="st2" width="19.2" height="7.7"/>
		<circle class="st2" cx="21.3" cy="4.6" r="5.2"/>
	</g>
</g>
<g id="wystawa" class="st0">
	<g class="st1">
		<rect x="9.3" y="32.8" class="st2" width="7.7" height="5.5"/>
		<rect x="25.6" y="32.8" class="st2" width="7.7" height="5.5"/>
	</g>
	<g class="st1">
		<g>
			<rect x="2.2" y="-0.7" class="st2" width="7.7" height="30.4"/>
			<rect x="32.6" y="-0.7" class="st2" width="7.7" height="30.4"/>
		</g>
		<circle class="st2" cx="21.3" cy="14.4" r="5.2"/>
	</g>
</g>
<g id="koncert" class="st0">
	<g class="st1">
		<rect x="26.9" y="-3.5" transform="matrix(0.7071 -0.7071 0.7071 0.7071 8.9411 19.6309)" class="st2" width="2.6" height="5.1"/>
		<rect x="38.9" y="8.6" transform="matrix(0.7071 -0.7071 0.7071 0.7071 3.8842 31.7016)" class="st2" width="2.6" height="5.1"/>
		
			<rect x="30.2" y="-6.7" transform="matrix(0.7071 -0.7071 0.7071 0.7071 12.1662 21.0252)" class="st2" width="2.6" height="5.1"/>
		<rect x="42.2" y="5.4" transform="matrix(0.7071 -0.7071 0.7071 0.7071 7.1093 33.0959)" class="st2" width="2.6" height="5.1"/>
		<rect x="21.8" y="5.9" transform="matrix(0.7071 -0.7071 0.7071 0.7071 1.8023 23.8261)" class="st2" width="15.7" height="7.7"/>
		<path class="st2" d="M11.3,14.4c-7.8,0-14.2,6.3-14.2,14.2s6.3,14.2,14.2,14.2s14.2-6.3,14.2-14.2S19.1,14.4,11.3,14.4z
			 M11.3,35.1c-3.6,0-6.6-2.9-6.6-6.6s2.9-6.6,6.6-6.6s6.6,2.9,6.6,6.6S14.9,35.1,11.3,35.1z"/>
	</g>
</g>
<g id="spektakl" class="st0">
	<g class="st1">
		<rect x="1" y="-0.9" class="st2" width="40.4" height="7.7"/>
		<g>
			<circle class="st2" cx="15.2" cy="17" r="5.2"/>
			<circle class="st2" cx="27.3" cy="17" r="5.2"/>
		</g>
		<g>
			<circle class="st2" cx="8.4" cy="30.1" r="5.2"/>
			<circle class="st2" cx="34.1" cy="30.1" r="5.2"/>
			<circle class="st2" cx="20.4" cy="30.1" r="5.2"/>
		</g>
	</g>
</g>
<g id="monodram-muzyczny" class="st0">
	<rect x="17.3" y="23.4" class="st5" width="7.7" height="17"/>
	<circle class="st5" cx="21.2" cy="14.2" r="5.2"/>
	<g class="st1">
		<g>
			<rect x="2.2" y="-0.8" class="st2" width="7.7" height="30.4"/>
			<rect x="32.6" y="-0.8" class="st2" width="7.7" height="30.4"/>
		</g>
	</g>
</g>
<g id="premiera" class="st0">
	<rect x="5" y="14" class="st5" width="7.7" height="18.2"/>
	<rect x="29.8" y="14" class="st5" width="7.7" height="18.2"/>
	<path class="st5" d="M33.7-0.4c-2.8,0-5.2,2.3-5.2,5.2c0,0.1,0,0.3,0,0.4c-0.7,3.5-3.8,6.1-7.5,6c-3.5-0.1-6.4-2.5-7.2-5.7
		c0-0.3,0.1-0.5,0.1-0.8c0-2.8-2.3-5.2-5.2-5.2c-2.8,0-5.2,2.3-5.2,5.2c0,2.8,2.3,5.2,5.2,5.2c1.2,0,2.3-0.4,3.2-1.1
		c1.4,2.4,3.7,4.3,6.4,5.1c0.8,0.2,1.7,0.4,2.6,0.4c4.1,0.1,7.6-2.2,9.4-5.5c0.9,0.7,2,1.2,3.2,1.2c2.8,0,5.2-2.3,5.2-5.2
		C38.9,1.9,36.5-0.4,33.7-0.4z"/>
</g>
<g>
	<rect x="2.8" y="13.1" class="st2" width="4.2" height="23.2"/>
	<path class="st2" d="M38,0c-2.8,0-5.2,2.3-5.2,5.2c0,0.4,0,0.7,0.1,1.1c-0.9,5.2-5.3,9.1-10.7,9.4c-3,0.2-6-0.9-8.2-2.9
		c-2.3-2-3.6-4.9-3.7-7.9l-0.1,0C10.1,2.1,7.9,0,5.2,0C2.3,0,0,2.3,0,5.2c0,2.8,2.3,5.2,5.2,5.2c1.2,0,2.2-0.4,3.1-1.1
		c0.8,2.1,2.1,4,3.8,5.6c2.7,2.4,6.1,3.7,9.7,3.7c0.2,0,0.5,0,0.7,0c5.8-0.3,10.7-4,12.7-9.1C36,10,37,10.3,38,10.3
		c2.8,0,5.2-2.3,5.2-5.2C43.2,2.3,40.9,0,38,0z"/>
	<rect x="35.7" y="13.1" class="st2" width="4.2" height="23.2"/>
</g>
</svg>
