<?xml version="1.0" encoding="utf-8"?>
<!-- Generator: Adobe Illustrator 26.3.1, SVG Export Plug-In . SVG Version: 6.00 Build 0)  -->
<svg version="1.1" xmlns="http://www.w3.org/2000/svg" xmlns:xlink="http://www.w3.org/1999/xlink" x="0px" y="0px" width="36.8px"
	 height="44.9px" viewBox="0 0 36.8 44.9" style="enable-background:new 0 0 36.8 44.9;" xml:space="preserve">
<style type="text/css">
	.st0{display:none;}
	.st1{display:inline;}
	.st2{fill:#2D2D2D;}
	.st3{display:inline;fill:#D81D4A;}
	.st4{fill:#D81D4A;}
	.st5{display:inline;fill:#2D2D2D;}
</style>
<g id="musical" class="st0">
	<g class="st1">
		<rect x="7.7" y="0.3" class="st2" width="29.7" height="7.7"/>
		<path class="st2" d="M7.7,29.5c-0.8-0.4-1.6-0.7-2.6-0.7c-2.8,0-5.2,2.3-5.2,5.2c0,2.8,2.3,5.2,5.2,5.2c1.2,0,2.4-0.5,3.4-1.3
			c1-0.9,1.5-2,1.7-3.3c0.1-0.7,0.1-1.6,0.1-2.3c0-0.9,0-1.8,0-2.7c0-2.4,0-4.7,0-7.1c0-2.4,0-4.7,0-7.1c0-1.4,0-2.9,0-4.3
			c0-0.1,0-0.2,0-0.4H7.7V29.5z"/>
		<path class="st2" d="M37.5,27.5c-0.1-1.5,0-3.1,0-4.6c0-2.3,0-4.7,0-7c0-1.6,0-3.2,0-4.9c0-0.1,0-0.2,0-0.3h-2.6v13.1
			c-0.7-0.4-1.6-0.7-2.5-0.7c-2.8,0-5.2,2.3-5.2,5.2c0,2.8,2.3,5.2,5.2,5.2c1.5,0,3-0.7,4-1.9c0.9-1.1,1.2-2.5,1.1-3.9
			C37.5,27.5,37.5,27.5,37.5,27.5z"/>
	</g>
</g>
<g id="musical-dla-dzieci" class="st0">
	
		<rect x="18.7" y="-10.7" transform="matrix(6.123234e-17 -1 1 6.123234e-17 18.4701 26.7511)" class="st3" width="7.7" height="29.7"/>
	<g class="st1">
		<g>
			<path class="st4" d="M21.6,46.5c-4.7,0-9-3.2-10.2-7.9l2.9-0.7c1,4,5.1,6.5,9.2,5.4c4-1,6.5-5.1,5.4-9.2l2.9-0.7
				c1.4,5.6-2,11.4-7.6,12.8C23.4,46.4,22.5,46.5,21.6,46.5z"/>
		</g>
	</g>
	<g class="st1">
		<g>
			<path class="st4" d="M7.7,26c-0.8-0.4-1.6-0.7-2.6-0.7c-2.8,0-5.2,2.3-5.2,5.2s2.3,5.2,5.2,5.2c2.7,0,4.9-2.1,5.1-4.7h0.1V10.7
				H7.7V26z M5.1,32.4c-1.1,0-1.9-0.9-1.9-1.9c0-1.1,0.9-1.9,1.9-1.9c1.1,0,1.9,0.9,1.9,1.9C7.1,31.6,6.2,32.4,5.1,32.4z"/>
			<path class="st4" d="M37.5,24V10.6h-2.6v9.6c-0.7-0.4-1.6-0.7-2.5-0.7c-2.8,0-5.2,2.3-5.2,5.2s2.3,5.2,5.2,5.2
				c2.8,0,5.2-2.3,5.2-5.2C37.5,24.5,37.5,24.2,37.5,24z M32.4,26.8c-1.1,0-1.9-0.9-1.9-1.9c0-1.1,0.9-1.9,1.9-1.9
				c1.1,0,1.9,0.9,1.9,1.9C34.3,25.9,33.5,26.8,32.4,26.8z"/>
		</g>
	</g>
</g>
<g id="wyklad-warsztat" class="st0">
	<g class="st1">
		
			<rect x="14.9" y="12.9" transform="matrix(-1.836970e-16 1 -1 -1.836970e-16 51.9175 14.3517)" class="st2" width="7.7" height="40.4"/>
		
			<rect x="14.9" y="10.8" transform="matrix(-1.836970e-16 1 -1 -1.836970e-16 39.2292 1.6634)" class="st2" width="7.7" height="19.2"/>
		<circle class="st2" cx="18.8" cy="5.6" r="5.2"/>
	</g>
</g>
<g id="wystawa" class="st0">
	<g class="st1">
		
			<rect x="6.7" y="33.7" transform="matrix(-1 -1.224647e-16 1.224647e-16 -1 21.1116 72.9408)" class="st2" width="7.7" height="5.5"/>
		
			<rect x="23" y="33.7" transform="matrix(-1 -1.224647e-16 1.224647e-16 -1 53.6987 72.9408)" class="st2" width="7.7" height="5.5"/>
	</g>
	<g class="st1">
		<g>
			
				<rect x="-0.4" y="0.2" transform="matrix(-1 -1.224647e-16 1.224647e-16 -1 7.0199 30.8761)" class="st2" width="7.7" height="30.4"/>
			
				<rect x="30" y="0.2" transform="matrix(-1 -1.224647e-16 1.224647e-16 -1 67.7904 30.8761)" class="st2" width="7.7" height="30.4"/>
		</g>
		<circle class="st2" cx="18.7" cy="15.4" r="5.2"/>
	</g>
</g>
<g id="koncert" class="st0">
	<g class="st1">
		<rect x="24.3" y="-2.5" transform="matrix(0.7071 -0.7071 0.7071 0.7071 7.4735 18.1046)" class="st2" width="2.6" height="5.1"/>
		<rect x="36.4" y="9.6" transform="matrix(0.7071 -0.7071 0.7071 0.7071 2.4745 30.1734)" class="st2" width="2.6" height="5.1"/>
		
			<rect x="27.6" y="-5.7" transform="matrix(0.7071 -0.7071 0.7071 0.7071 10.6984 19.5049)" class="st2" width="2.6" height="5.1"/>
		<rect x="39.7" y="6.4" transform="matrix(0.7071 -0.7071 0.7071 0.7071 5.6994 31.5737)" class="st2" width="2.6" height="5.1"/>
		
			<rect x="23.3" y="2.8" transform="matrix(-0.7071 -0.7071 0.7071 -0.7071 38.8411 37.4814)" class="st2" width="7.7" height="15.7"/>
		<path class="st2" d="M8.7,15.4c-7.8,0-14.2,6.3-14.2,14.2S0.9,43.7,8.7,43.7s14.2-6.3,14.2-14.2S16.5,15.4,8.7,15.4z M8.7,36.1
			c-3.6,0-6.6-2.9-6.6-6.6s2.9-6.6,6.6-6.6s6.6,2.9,6.6,6.6S12.3,36.1,8.7,36.1z"/>
	</g>
</g>
<g id="spektakl" class="st0">
	<g class="st1">
		
			<rect x="14.8" y="-16.2" transform="matrix(-1.836970e-16 1 -1 -1.836970e-16 22.6733 -14.7318)" class="st2" width="7.7" height="40.4"/>
		<g>
			<circle class="st2" cx="12.7" cy="18" r="5.2"/>
			<circle class="st2" cx="24.7" cy="18" r="5.2"/>
		</g>
		<g>
			<circle class="st2" cx="5.8" cy="31.1" r="5.2"/>
			<circle class="st2" cx="31.6" cy="31.1" r="5.2"/>
			<circle class="st2" cx="17.9" cy="31.1" r="5.2"/>
		</g>
	</g>
</g>
<g id="monodram-muzyczny" class="st0">
	<rect x="14.7" y="24.4" class="st5" width="7.7" height="17"/>
	<circle class="st5" cx="18.6" cy="15.2" r="5.2"/>
	<g class="st1">
		<g>
			
				<rect x="-0.4" y="0.1" transform="matrix(-1 -1.224647e-16 1.224647e-16 -1 7.0199 30.6389)" class="st2" width="7.7" height="30.4"/>
			
				<rect x="30" y="0.1" transform="matrix(-1 -1.224647e-16 1.224647e-16 -1 67.7904 30.6389)" class="st2" width="7.7" height="30.4"/>
		</g>
	</g>
</g>
<g id="goscinny" class="st0">
	<g class="st1">
		<g>
			<path class="st2" d="M15.2,36.4c-5.3-1.3-9.2-6.2-9.3-11.9l3.5,0c0,4.8,3.9,8.8,8.8,8.8c4.8,0,8.8-4,8.8-8.8l3.5,0
				c0,6.8-5.5,12.3-12.2,12.3C17.2,36.8,16.2,36.7,15.2,36.4z"/>
		</g>
	</g>
	
		<rect x="14.8" y="-3.3" transform="matrix(-1.836970e-16 1 -1 -1.836970e-16 35.617 -1.7881)" class="st5" width="7.7" height="40.4"/>
	
		<rect x="14.8" y="-5.4" transform="matrix(-1.836970e-16 1 -1 -1.836970e-16 22.9287 -14.4765)" class="st5" width="7.7" height="19.2"/>
</g>
<g id="premiera" class="st0">
	<rect x="2.4" y="15" class="st5" width="7.7" height="18.2"/>
	<rect x="27.3" y="15" class="st5" width="7.7" height="18.2"/>
	<path class="st5" d="M31.1,0.6c-2.8,0-5.2,2.3-5.2,5.2c0,0.1,0,0.3,0,0.4c-0.7,3.5-3.8,6.1-7.5,6c-3.5-0.1-6.4-2.5-7.2-5.7
		c0-0.3,0.1-0.5,0.1-0.8c0-2.8-2.3-5.2-5.2-5.2c-2.8,0-5.2,2.3-5.2,5.2c0,2.8,2.3,5.2,5.2,5.2c1.2,0,2.3-0.4,3.2-1.1
		c1.4,2.4,3.7,4.3,6.4,5.1c0.8,0.2,1.7,0.4,2.6,0.4c4.1,0.1,7.6-2.2,9.4-5.5c0.9,0.7,2,1.2,3.2,1.2c2.8,0,5.2-2.3,5.2-5.2
		C36.3,2.9,34,0.6,31.1,0.6z"/>
</g>
<g id="spektakl-komediowo-muzyczny" class="st0">
	<g class="st1">
		
			<rect x="3.1" y="28.7" transform="matrix(-1.836970e-16 1 -1 -1.836970e-16 39.2774 25.4043)" class="st2" width="7.7" height="7.3"/>
		
			<rect x="3.1" y="0.5" transform="matrix(-1.836970e-16 1 -1 -1.836970e-16 11.0946 -2.7785)" class="st2" width="7.7" height="7.3"/>
	</g>
	<path class="st5" d="M16.7,0C26.7-0.1,35,8,35.1,18.1s-8,18.3-18.1,18.4"/>
</g>
<g id="rock-opera">
	<rect x="14.7" y="0" transform="matrix(-1 -1.224647e-16 1.224647e-16 -1 37.2182 17.0621)" class="st2" width="7.7" height="17"/>
	<circle class="st2" cx="5.6" cy="6.4" r="5.2"/>
	<path class="st2" d="M31.3,1.2c-2.8,0-5.2,2.3-5.2,5.2s2.3,5.2,5.2,5.2s5.2-2.3,5.2-5.2S34.2,1.2,31.3,1.2z M31.3,8.3
		c-1.1,0-1.9-0.9-1.9-1.9c0-1.1,0.9-1.9,1.9-1.9c1.1,0,1.9,0.9,1.9,1.9C33.3,7.5,32.4,8.3,31.3,8.3z"/>
	<path class="st2" d="M18.6,22.3c-6.1,0-11,4.9-11,11s4.9,11,11,11s11-4.9,11-11S24.7,22.3,18.6,22.3z M18.6,38.5
		c-2.8,0-5.1-2.3-5.1-5.1s2.3-5.1,5.1-5.1s5.1,2.3,5.1,5.1S21.4,38.5,18.6,38.5z"/>
</g>
<g id="widowisko-muzyczne" class="st0">
	<circle class="st5" cx="-8.3" cy="4.6" r="5.2"/>
	
		<rect x="35.6" y="-2.8" transform="matrix(6.123234e-17 -1 1 6.123234e-17 35.4841 43.3498)" class="st5" width="7.7" height="13.5"/>
	<path class="st5" d="M12.9,10.3h-2.6v18.9c-0.8-0.4-1.6-0.7-2.6-0.7c-2.8,0-5.2,2.3-5.2,5.2s2.3,5.2,5.2,5.2c2.7,0,4.9-2.1,5.1-4.7
		h0.1V10.3z"/>
	<path class="st5" d="M35.4,27.1V10.3h-2.6v13.1c-0.7-0.4-1.6-0.7-2.5-0.7c-2.8,0-5.2,2.3-5.2,5.2c0,2.8,2.3,5.2,5.2,5.2
		c2.8,0,5.2-2.3,5.2-5.2C35.5,27.6,35.5,27.4,35.4,27.1z"/>
</g>
<g id="spektakl-baletowy" class="st0">
	<g class="st1">
		<path class="st2" d="M0.6,51.3C0.5,41.2,8.5,33,18.6,32.9S36.9,40.9,37,51"/>
		
			<rect x="13.3" y="14.5" transform="matrix(-1.836970e-16 1 -1 -1.836970e-16 42.5043 5.6561)" class="st2" width="10.2" height="19.2"/>
		<circle class="st2" cx="18.4" cy="9" r="5.2"/>
		<circle class="st2" cx="11.5" cy="2.8" r="2.6"/>
	</g>
</g>
<g id="operetka" class="st0">
	<circle class="st5" cx="14.6" cy="7.8" r="7.1"/>
	<circle class="st5" cx="30.2" cy="7.8" r="7.1"/>
	
		<rect x="0.3" y="0.3" transform="matrix(-1 -1.224647e-16 1.224647e-16 -1 4.774 42.2245)" class="st5" width="4.2" height="41.7"/>
</g>
</svg>
