<?xml version="1.0" encoding="utf-8"?>
<!-- Generator: Adobe Illustrator 26.3.1, SVG Export Plug-In . SVG Version: 6.00 Build 0)  -->
<svg version="1.1" id="Layer_1" xmlns="http://www.w3.org/2000/svg" xmlns:xlink="http://www.w3.org/1999/xlink" x="0px" y="0px"
	 width="34.7px" height="35px" viewBox="0 0 34.7 35" style="enable-background:new 0 0 34.7 35;" xml:space="preserve">
<style type="text/css">
	.st0{display:none;}
	.st1{display:inline;}
	.st2{fill:#2D2D2D;}
	.st3{display:inline;fill:#D81D4A;}
	.st4{fill:#D81D4A;}
	.st5{display:inline;fill:#2D2D2D;}
</style>
<g id="musical" class="st0">
	<g class="st1">
		<rect x="6" y="-1.3" class="st2" width="29.7" height="7.7"/>
		<path class="st2" d="M6,27.9c-0.8-0.4-1.6-0.7-2.6-0.7c-2.8,0-5.2,2.3-5.2,5.2c0,2.8,2.3,5.2,5.2,5.2c1.2,0,2.4-0.5,3.4-1.3
			c1-0.9,1.5-2,1.7-3.3c0.1-0.7,0.1-1.6,0.1-2.3c0-0.9,0-1.8,0-2.7c0-2.4,0-4.7,0-7.1s0-4.7,0-7.1c0-1.4,0-2.9,0-4.3
			c0-0.1,0-0.2,0-0.4H6V27.9z"/>
		<path class="st2" d="M35.7,25.9c-0.1-1.5,0-3.1,0-4.6c0-2.3,0-4.7,0-7c0-1.6,0-3.2,0-4.9c0-0.1,0-0.2,0-0.3h-2.6v13.1
			c-0.7-0.4-1.6-0.7-2.5-0.7c-2.8,0-5.2,2.3-5.2,5.2c0,2.8,2.3,5.2,5.2,5.2c1.5,0,3-0.7,4-1.9c0.9-1.1,1.2-2.5,1.1-3.9
			C35.7,25.9,35.7,25.9,35.7,25.9z"/>
	</g>
</g>
<g id="musical-dla-dzieci" class="st0">
	<rect x="6.1" y="-1.3" class="st3" width="29.7" height="7.7"/>
	<g class="st1">
		<g>
			<path class="st4" d="M19.9,44.9c-4.7,0-9-3.2-10.2-7.9l2.9-0.7c1,4,5.1,6.5,9.2,5.4c4-1,6.5-5.1,5.4-9.2l2.9-0.7
				c1.4,5.6-2,11.4-7.6,12.8C21.6,44.8,20.7,44.9,19.9,44.9z"/>
		</g>
	</g>
	<g class="st1">
		<g>
			<path class="st4" d="M6,24.4c-0.8-0.4-1.6-0.7-2.6-0.7c-2.8,0-5.2,2.3-5.2,5.2s2.3,5.2,5.2,5.2c2.7,0,4.9-2.1,5.1-4.7h0.1V9.1H6
				V24.4z M3.4,30.8c-1.1,0-1.9-0.9-1.9-1.9c0-1.1,0.9-1.9,1.9-1.9c1.1,0,1.9,0.9,1.9,1.9C5.3,30,4.5,30.8,3.4,30.8z"/>
			<path class="st4" d="M35.7,22.4V9h-2.6v9.6c-0.7-0.4-1.6-0.7-2.5-0.7c-2.8,0-5.2,2.3-5.2,5.2s2.3,5.2,5.2,5.2
				c2.8,0,5.2-2.3,5.2-5.2C35.8,22.9,35.8,22.6,35.7,22.4z M30.6,25.2c-1.1,0-1.9-0.9-1.9-1.9c0-1.1,0.9-1.9,1.9-1.9
				c1.1,0,1.9,0.9,1.9,1.9C32.6,24.3,31.7,25.2,30.6,25.2z"/>
		</g>
	</g>
</g>
<g id="wyklad-warsztat" class="st0">
	<g class="st1">
		<rect x="-3.1" y="27.7" class="st2" width="40.4" height="7.7"/>
		<rect x="7.5" y="15" class="st2" width="19.2" height="7.7"/>
		<circle class="st2" cx="17" cy="4" r="5.2"/>
	</g>
</g>
<g id="wystawa" class="st0">
	<g class="st1">
		<rect x="5.1" y="32.1" class="st2" width="7.7" height="5.5"/>
		<rect x="21.3" y="32.1" class="st2" width="7.7" height="5.5"/>
	</g>
	<g class="st1">
		<g>
			<rect x="-2" y="-1.4" class="st2" width="7.7" height="30.4"/>
			<rect x="28.3" y="-1.4" class="st2" width="7.7" height="30.4"/>
		</g>
		<circle class="st2" cx="17" cy="13.8" r="5.2"/>
	</g>
</g>
<g id="koncert" class="st0">
	<g class="st1">
		<rect x="22.6" y="-4.2" transform="matrix(0.7071 -0.7071 0.7071 0.7071 8.1648 16.4491)" class="st2" width="2.6" height="5.1"/>
		<rect x="34.7" y="8" transform="matrix(0.7071 -0.7071 0.7071 0.7071 3.1079 28.5198)" class="st2" width="2.6" height="5.1"/>
		
			<rect x="25.9" y="-7.4" transform="matrix(0.7071 -0.7071 0.7071 0.7071 11.3898 17.8434)" class="st2" width="2.6" height="5.1"/>
		<rect x="38" y="4.8" transform="matrix(0.7071 -0.7071 0.7071 0.7071 6.333 29.9141)" class="st2" width="2.6" height="5.1"/>
		<rect x="17.6" y="5.2" transform="matrix(0.7071 -0.7071 0.7071 0.7071 1.026 20.6443)" class="st2" width="15.7" height="7.7"/>
		<path class="st2" d="M7,13.8c-7.8,0-14.2,6.3-14.2,14.2S-0.9,42.2,7,42.2S21.2,35.9,21.2,28S14.8,13.8,7,13.8z M7,34.5
			c-3.6,0-6.6-2.9-6.6-6.6s2.9-6.6,6.6-6.6s6.6,2.9,6.6,6.6S10.6,34.5,7,34.5z"/>
	</g>
</g>
<g id="spektakl" class="st0">
	<g class="st1">
		<rect x="-3.2" y="-1.5" class="st2" width="40.4" height="7.7"/>
		<g>
			<circle class="st2" cx="10.9" cy="16.4" r="5.2"/>
			<circle class="st2" cx="23" cy="16.4" r="5.2"/>
		</g>
		<g>
			<circle class="st2" cx="4.1" cy="29.5" r="5.2"/>
			<circle class="st2" cx="29.8" cy="29.5" r="5.2"/>
			<circle class="st2" cx="16.1" cy="29.5" r="5.2"/>
		</g>
	</g>
</g>
<g id="monodram-muzyczny" class="st0">
	<rect x="13" y="22.8" class="st5" width="7.7" height="17"/>
	<circle class="st5" cx="16.9" cy="13.6" r="5.2"/>
	<g class="st1">
		<g>
			<rect x="-2" y="-1.5" class="st2" width="7.7" height="30.4"/>
			<rect x="28.3" y="-1.5" class="st2" width="7.7" height="30.4"/>
		</g>
	</g>
</g>
<g id="premiera" class="st0">
	<rect x="0.7" y="13.4" class="st5" width="7.7" height="18.2"/>
	<rect x="25.5" y="13.4" class="st5" width="7.7" height="18.2"/>
	<path class="st5" d="M29.4-1c-2.8,0-5.2,2.3-5.2,5.2c0,0.1,0,0.3,0,0.4c-0.7,3.5-3.8,6.1-7.5,6c-3.5-0.1-6.4-2.5-7.2-5.7
		c0-0.3,0.1-0.5,0.1-0.8c0-2.8-2.3-5.2-5.2-5.2c-2.8,0-5.2,2.3-5.2,5.2c0,2.8,2.3,5.2,5.2,5.2c1.2,0,2.3-0.4,3.2-1.1
		c1.4,2.4,3.7,4.3,6.4,5.1c0.8,0.2,1.7,0.4,2.6,0.4c4.1,0.1,7.6-2.2,9.4-5.5c0.9,0.7,2,1.2,3.2,1.2c2.8,0,5.2-2.3,5.2-5.2
		C34.6,1.3,32.2-1,29.4-1z"/>
</g>
<rect transform="matrix(-1 -1.224647e-16 1.224647e-16 -1 6.8068 34.5733)" class="st2" width="6.8" height="34.6"/>
<rect x="11.7" y="4.1" transform="matrix(-1 -1.224647e-16 1.224647e-16 -1 30.1462 38.6971)" class="st2" width="6.8" height="30.4"/>
<polygon class="st2" points="20.6,9.3 27,6.9 34.7,32.5 28.3,35 "/>
</svg>
