<?xml version="1.0" encoding="utf-8"?>
<!-- Generator: Adobe Illustrator 26.3.1, SVG Export Plug-In . SVG Version: 6.00 Build 0)  -->
<svg version="1.1" id="Layer_1" xmlns="http://www.w3.org/2000/svg" xmlns:xlink="http://www.w3.org/1999/xlink" x="0px" y="0px"
	 width="31.8px" height="36.5px" viewBox="0 0 31.8 36.5" style="enable-background:new 0 0 31.8 36.5;" xml:space="preserve">
<style type="text/css">
	.st0{display:none;}
	.st1{display:inline;}
	.st2{fill:#2D2D2D;}
	.st3{display:inline;fill:#D81D4A;}
	.st4{fill:#D81D4A;}
	.st5{display:inline;fill:#2D2D2D;}
</style>
<g id="musical" class="st0">
	<g class="st1">
		<rect x="4.6" y="-0.6" class="st2" width="29.7" height="7.7"/>
		<path class="st2" d="M4.6,28.6C3.8,28.2,3,27.9,2,27.9c-2.8,0-5.2,2.3-5.2,5.2c0,2.8,2.3,5.2,5.2,5.2c1.2,0,2.4-0.5,3.4-1.3
			c1-0.9,1.5-2,1.7-3.3c0.1-0.7,0.1-1.6,0.1-2.3c0-0.9,0-1.8,0-2.7c0-2.4,0-4.7,0-7.1s0-4.7,0-7.1c0-1.4,0-2.9,0-4.3
			c0-0.1,0-0.2,0-0.4H4.6V28.6z"/>
		<path class="st2" d="M34.3,26.6c-0.1-1.5,0-3.1,0-4.6c0-2.3,0-4.7,0-7c0-1.6,0-3.2,0-4.9c0-0.1,0-0.2,0-0.3h-2.6v13.1
			c-0.7-0.4-1.6-0.7-2.5-0.7c-2.8,0-5.2,2.3-5.2,5.2c0,2.8,2.3,5.2,5.2,5.2c1.5,0,3-0.7,4-1.9c0.9-1.1,1.2-2.5,1.1-3.9
			C34.3,26.6,34.3,26.6,34.3,26.6z"/>
	</g>
</g>
<g id="musical-dla-dzieci" class="st0">
	<rect x="4.6" y="-0.6" class="st3" width="29.7" height="7.7"/>
	<g class="st1">
		<g>
			<path class="st4" d="M18.5,45.6c-4.7,0-9-3.2-10.2-7.9l2.9-0.7c1,4,5.1,6.5,9.2,5.4c4-1,6.5-5.1,5.4-9.2l2.9-0.7
				c1.4,5.6-2,11.4-7.6,12.8C20.2,45.5,19.3,45.6,18.5,45.6z"/>
		</g>
	</g>
	<g class="st1">
		<g>
			<path class="st4" d="M4.6,25.1C3.8,24.7,3,24.4,2,24.4c-2.8,0-5.2,2.3-5.2,5.2s2.3,5.2,5.2,5.2c2.7,0,4.9-2.1,5.1-4.7h0.1V9.8
				H4.6V25.1z M2,31.5c-1.1,0-1.9-0.9-1.9-1.9c0-1.1,0.9-1.9,1.9-1.9c1.1,0,1.9,0.9,1.9,1.9C3.9,30.7,3.1,31.5,2,31.5z"/>
			<path class="st4" d="M34.3,23.1V9.7h-2.6v9.6c-0.7-0.4-1.6-0.7-2.5-0.7c-2.8,0-5.2,2.3-5.2,5.2s2.3,5.2,5.2,5.2
				c2.8,0,5.2-2.3,5.2-5.2C34.4,23.6,34.4,23.3,34.3,23.1z M29.2,25.9c-1.1,0-1.9-0.9-1.9-1.9c0-1.1,0.9-1.9,1.9-1.9
				c1.1,0,1.9,0.9,1.9,1.9C31.2,25,30.3,25.9,29.2,25.9z"/>
		</g>
	</g>
</g>
<g id="wyklad-warsztat" class="st0">
	<g class="st1">
		<rect x="-4.5" y="28.4" class="st2" width="40.4" height="7.7"/>
		<rect x="6.1" y="15.7" class="st2" width="19.2" height="7.7"/>
		<circle class="st2" cx="15.6" cy="4.7" r="5.2"/>
	</g>
</g>
<g id="wystawa" class="st0">
	<g class="st1">
		<rect x="3.6" y="32.8" class="st2" width="7.7" height="5.5"/>
		<rect x="19.9" y="32.8" class="st2" width="7.7" height="5.5"/>
	</g>
	<g class="st1">
		<g>
			<rect x="-3.5" y="-0.7" class="st2" width="7.7" height="30.4"/>
			<rect x="26.9" y="-0.7" class="st2" width="7.7" height="30.4"/>
		</g>
		<circle class="st2" cx="15.6" cy="14.5" r="5.2"/>
	</g>
</g>
<g id="koncert" class="st0">
	<g class="st1">
		<rect x="21.2" y="-3.5" transform="matrix(0.7071 -0.7071 0.7071 0.7071 7.26 15.6455)" class="st2" width="2.6" height="5.1"/>
		<rect x="33.3" y="8.6" transform="matrix(0.7071 -0.7071 0.7071 0.7071 2.2032 27.7161)" class="st2" width="2.6" height="5.1"/>
		
			<rect x="24.5" y="-6.7" transform="matrix(0.7071 -0.7071 0.7071 0.7071 10.4851 17.0398)" class="st2" width="2.6" height="5.1"/>
		<rect x="36.6" y="5.5" transform="matrix(0.7071 -0.7071 0.7071 0.7071 5.4282 29.1104)" class="st2" width="2.6" height="5.1"/>
		<rect x="16.2" y="5.9" transform="matrix(0.7071 -0.7071 0.7071 0.7071 0.1213 19.8406)" class="st2" width="15.7" height="7.7"/>
		<path class="st2" d="M5.6,14.5c-7.8,0-14.2,6.3-14.2,14.2s6.3,14.2,14.2,14.2s14.2-6.3,14.2-14.2S13.4,14.5,5.6,14.5z M5.6,35.2
			C2,35.2-1,32.3-1,28.6S1.9,22,5.6,22s6.6,2.9,6.6,6.6S9.2,35.2,5.6,35.2z"/>
	</g>
</g>
<g id="spektakl" class="st0">
	<g class="st1">
		<rect x="-4.7" y="-0.8" class="st2" width="40.4" height="7.7"/>
		<g>
			<circle class="st2" cx="9.5" cy="17.1" r="5.2"/>
			<circle class="st2" cx="21.6" cy="17.1" r="5.2"/>
		</g>
		<g>
			<circle class="st2" cx="2.7" cy="30.2" r="5.2"/>
			<circle class="st2" cx="28.4" cy="30.2" r="5.2"/>
			<circle class="st2" cx="14.7" cy="30.2" r="5.2"/>
		</g>
	</g>
</g>
<g id="monodram-muzyczny" class="st0">
	<rect x="11.6" y="23.5" class="st5" width="7.7" height="17"/>
	<circle class="st5" cx="15.5" cy="14.3" r="5.2"/>
	<g class="st1">
		<g>
			<rect x="-3.5" y="-0.8" class="st2" width="7.7" height="30.4"/>
			<rect x="26.9" y="-0.8" class="st2" width="7.7" height="30.4"/>
		</g>
	</g>
</g>
<g id="premiera" class="st0">
	<rect x="-0.7" y="14.1" class="st5" width="7.7" height="18.2"/>
	<rect x="24.1" y="14.1" class="st5" width="7.7" height="18.2"/>
	<path class="st5" d="M28-0.3c-2.8,0-5.2,2.3-5.2,5.2c0,0.1,0,0.3,0,0.4c-0.7,3.5-3.8,6.1-7.5,6c-3.5-0.1-6.4-2.5-7.2-5.7
		c0-0.3,0.1-0.5,0.1-0.8C8.2,2,5.9-0.4,3-0.4c-2.8,0-5.2,2.3-5.2,5.2C-2.2,7.6,0.1,10,3,10c1.2,0,2.3-0.4,3.2-1.1
		c1.4,2.4,3.7,4.3,6.4,5.1c0.8,0.2,1.7,0.4,2.6,0.4c4.1,0.1,7.6-2.2,9.4-5.5c0.9,0.7,2,1.2,3.2,1.2c2.8,0,5.2-2.3,5.2-5.2
		C33.2,2,30.8-0.3,28-0.3z"/>
</g>
<g>
	
		<rect x="-0.2" y="28.7" transform="matrix(-1.836970e-16 1 -1 -1.836970e-16 35.973 28.6941)" class="st2" width="7.7" height="7.3"/>
	
		<rect x="-0.2" y="0.5" transform="matrix(-1.836970e-16 1 -1 -1.836970e-16 7.7902 0.5113)" class="st2" width="7.7" height="7.3"/>
</g>
<path class="st2" d="M13.4,0c10.1-0.1,18.3,8,18.4,18.1c0.1,10.1-8,18.3-18.1,18.4"/>
</svg>
