<?xml version="1.0" encoding="utf-8"?>
<!-- Generator: Adobe Illustrator 26.3.1, SVG Export Plug-In . SVG Version: 6.00 Build 0)  -->
<svg version="1.1" xmlns="http://www.w3.org/2000/svg" xmlns:xlink="http://www.w3.org/1999/xlink" x="0px" y="0px" width="37.9px"
	 height="51.1px" viewBox="0 0 37.9 51.1" style="enable-background:new 0 0 37.9 51.1;" xml:space="preserve">
<style type="text/css">
	.st0{display:none;}
	.st1{display:inline;}
	.st2{fill:#2D2D2D;}
	.st3{display:inline;fill:#D81D4A;}
	.st4{fill:#D81D4A;}
	.st5{display:inline;fill:#2D2D2D;}
</style>
<g id="musical" class="st0">
	<g class="st1">
		<rect x="8" y="0.3" class="st2" width="29.7" height="7.7"/>
		<path class="st2" d="M8,29.5c-0.8-0.4-1.6-0.7-2.6-0.7c-2.8,0-5.2,2.3-5.2,5.2c0,2.8,2.3,5.2,5.2,5.2c1.2,0,2.4-0.5,3.4-1.3
			c1-0.9,1.5-2,1.7-3.3c0.1-0.7,0.1-1.6,0.1-2.3c0-0.9,0-1.8,0-2.7c0-2.4,0-4.7,0-7.1c0-2.4,0-4.7,0-7.1c0-1.4,0-2.9,0-4.3
			c0-0.1,0-0.2,0-0.4H8V29.5z"/>
		<path class="st2" d="M37.8,27.5c-0.1-1.5,0-3.1,0-4.6c0-2.3,0-4.7,0-7c0-1.6,0-3.2,0-4.9c0-0.1,0-0.2,0-0.3h-2.6v13.1
			c-0.7-0.4-1.6-0.7-2.5-0.7c-2.8,0-5.2,2.3-5.2,5.2c0,2.8,2.3,5.2,5.2,5.2c1.5,0,3-0.7,4-1.9c0.9-1.1,1.2-2.5,1.1-3.9
			C37.8,27.5,37.8,27.5,37.8,27.5z"/>
	</g>
</g>
<g id="musical-dla-dzieci" class="st0">
	
		<rect x="19.1" y="-10.7" transform="matrix(6.123234e-17 -1 1 6.123234e-17 18.8004 27.0813)" class="st3" width="7.7" height="29.7"/>
	<g class="st1">
		<g>
			<path class="st4" d="M22,46.5c-4.7,0-9-3.2-10.2-7.9l2.9-0.7c1,4,5.1,6.5,9.2,5.4c4-1,6.5-5.1,5.4-9.2l2.9-0.7
				c1.4,5.6-2,11.4-7.6,12.8C23.7,46.4,22.8,46.5,22,46.5z"/>
		</g>
	</g>
	<g class="st1">
		<g>
			<path class="st4" d="M8.1,26c-0.8-0.4-1.6-0.7-2.6-0.7c-2.8,0-5.2,2.3-5.2,5.2s2.3,5.2,5.2,5.2c2.7,0,4.9-2.1,5.1-4.7h0.1V10.7
				H8.1V26z M5.5,32.4c-1.1,0-1.9-0.9-1.9-1.9c0-1.1,0.9-1.9,1.9-1.9c1.1,0,1.9,0.9,1.9,1.9C7.4,31.6,6.5,32.4,5.5,32.4z"/>
			<path class="st4" d="M37.8,24V10.6h-2.6v9.6c-0.7-0.4-1.6-0.7-2.5-0.7c-2.8,0-5.2,2.3-5.2,5.2s2.3,5.2,5.2,5.2
				c2.8,0,5.2-2.3,5.2-5.2C37.9,24.5,37.8,24.2,37.8,24z M32.7,26.8c-1.1,0-1.9-0.9-1.9-1.9c0-1.1,0.9-1.9,1.9-1.9
				c1.1,0,1.9,0.9,1.9,1.9C34.7,25.9,33.8,26.8,32.7,26.8z"/>
		</g>
	</g>
</g>
<g id="wyklad-warsztat" class="st0">
	<g class="st1">
		
			<rect x="15.3" y="12.9" transform="matrix(-1.836970e-16 1 -1 -1.836970e-16 52.2478 14.0215)" class="st2" width="7.7" height="40.4"/>
		
			<rect x="15.3" y="10.8" transform="matrix(-1.836970e-16 1 -1 -1.836970e-16 39.5594 1.3331)" class="st2" width="7.7" height="19.2"/>
		<circle class="st2" cx="19.1" cy="5.6" r="5.2"/>
	</g>
</g>
<g id="wystawa" class="st0">
	<g class="st1">
		
			<rect x="7" y="33.7" transform="matrix(-1 -1.224647e-16 1.224647e-16 -1 21.7721 72.9408)" class="st2" width="7.7" height="5.5"/>
		
			<rect x="23.3" y="33.7" transform="matrix(-1 -1.224647e-16 1.224647e-16 -1 54.3592 72.9408)" class="st2" width="7.7" height="5.5"/>
	</g>
	<g class="st1">
		<g>
			
				<rect x="0" y="0.2" transform="matrix(-1 -1.224647e-16 1.224647e-16 -1 7.6804 30.8761)" class="st2" width="7.7" height="30.4"/>
			
				<rect x="30.4" y="0.2" transform="matrix(-1 -1.224647e-16 1.224647e-16 -1 68.4509 30.8761)" class="st2" width="7.7" height="30.4"/>
		</g>
		<circle class="st2" cx="19" cy="15.4" r="5.2"/>
	</g>
</g>
<g id="koncert" class="st0">
	<g class="st1">
		<rect x="24.6" y="-2.5" transform="matrix(0.7071 -0.7071 0.7071 0.7071 7.5703 18.3382)" class="st2" width="2.6" height="5.1"/>
		<rect x="36.7" y="9.6" transform="matrix(0.7071 -0.7071 0.7071 0.7071 2.5712 30.4069)" class="st2" width="2.6" height="5.1"/>
		
			<rect x="27.9" y="-5.7" transform="matrix(0.7071 -0.7071 0.7071 0.7071 10.7952 19.7384)" class="st2" width="2.6" height="5.1"/>
		<rect x="40" y="6.4" transform="matrix(0.7071 -0.7071 0.7071 0.7071 5.7961 31.8072)" class="st2" width="2.6" height="5.1"/>
		
			<rect x="23.7" y="2.8" transform="matrix(-0.7071 -0.7071 0.7071 -0.7071 39.4049 37.715)" class="st2" width="7.7" height="15.7"/>
		<path class="st2" d="M9,15.4c-7.8,0-14.2,6.3-14.2,14.2S1.2,43.7,9,43.7s14.2-6.3,14.2-14.2S16.9,15.4,9,15.4z M9,36.1
			c-3.6,0-6.6-2.9-6.6-6.6s2.9-6.6,6.6-6.6s6.6,2.9,6.6,6.6S12.7,36.1,9,36.1z"/>
	</g>
</g>
<g id="spektakl" class="st0">
	<g class="st1">
		
			<rect x="15.2" y="-16.2" transform="matrix(-1.836970e-16 1 -1 -1.836970e-16 23.0036 -15.0621)" class="st2" width="7.7" height="40.4"/>
		<g>
			<circle class="st2" cx="13" cy="18" r="5.2"/>
			<circle class="st2" cx="25" cy="18" r="5.2"/>
		</g>
		<g>
			<circle class="st2" cx="6.2" cy="31.1" r="5.2"/>
			<circle class="st2" cx="31.9" cy="31.1" r="5.2"/>
			<circle class="st2" cx="18.2" cy="31.1" r="5.2"/>
		</g>
	</g>
</g>
<g id="monodram-muzyczny" class="st0">
	<rect x="15.1" y="24.4" class="st5" width="7.7" height="17"/>
	<circle class="st5" cx="18.9" cy="15.2" r="5.2"/>
	<g class="st1">
		<g>
			
				<rect x="0" y="0.1" transform="matrix(-1 -1.224647e-16 1.224647e-16 -1 7.6804 30.6389)" class="st2" width="7.7" height="30.4"/>
			
				<rect x="30.4" y="0.1" transform="matrix(-1 -1.224647e-16 1.224647e-16 -1 68.4509 30.6389)" class="st2" width="7.7" height="30.4"/>
		</g>
	</g>
</g>
<g id="goscinny" class="st0">
	<g class="st1">
		<g>
			<path class="st2" d="M15.5,36.4c-5.3-1.3-9.2-6.2-9.3-11.9l3.5,0c0,4.8,3.9,8.8,8.8,8.8c4.8,0,8.8-4,8.8-8.8l3.5,0
				c0,6.8-5.5,12.3-12.2,12.3C17.5,36.8,16.5,36.7,15.5,36.4z"/>
		</g>
	</g>
	
		<rect x="15.2" y="-3.3" transform="matrix(-1.836970e-16 1 -1 -1.836970e-16 35.9473 -2.1184)" class="st5" width="7.7" height="40.4"/>
	
		<rect x="15.2" y="-5.4" transform="matrix(-1.836970e-16 1 -1 -1.836970e-16 23.2589 -14.8067)" class="st5" width="7.7" height="19.2"/>
</g>
<g id="premiera" class="st0">
	<rect x="2.7" y="15" class="st5" width="7.7" height="18.2"/>
	<rect x="27.6" y="15" class="st5" width="7.7" height="18.2"/>
	<path class="st5" d="M31.5,0.6c-2.8,0-5.2,2.3-5.2,5.2c0,0.1,0,0.3,0,0.4c-0.7,3.5-3.8,6.1-7.5,6c-3.5-0.1-6.4-2.5-7.2-5.7
		c0-0.3,0.1-0.5,0.1-0.8c0-2.8-2.3-5.2-5.2-5.2c-2.8,0-5.2,2.3-5.2,5.2c0,2.8,2.3,5.2,5.2,5.2c1.2,0,2.3-0.4,3.2-1.1
		c1.4,2.4,3.7,4.3,6.4,5.1c0.8,0.2,1.7,0.4,2.6,0.4c4.1,0.1,7.6-2.2,9.4-5.5c0.9,0.7,2,1.2,3.2,1.2c2.8,0,5.2-2.3,5.2-5.2
		C36.6,2.9,34.3,0.6,31.5,0.6z"/>
</g>
<g id="spektakl-komediowo-muzyczny" class="st0">
	<g class="st1">
		
			<rect x="3.4" y="28.7" transform="matrix(-1.836970e-16 1 -1 -1.836970e-16 39.6077 25.074)" class="st2" width="7.7" height="7.3"/>
		
			<rect x="3.4" y="0.5" transform="matrix(-1.836970e-16 1 -1 -1.836970e-16 11.4249 -3.1088)" class="st2" width="7.7" height="7.3"/>
	</g>
	<path class="st5" d="M17,0c10.1-0.1,18.3,8,18.4,18.1s-8,18.3-18.1,18.4"/>
</g>
<g id="rock-opera" class="st0">
	<rect x="15.1" y="0" transform="matrix(-1 -1.224647e-16 1.224647e-16 -1 37.8787 17.0621)" class="st5" width="7.7" height="17"/>
	<circle class="st5" cx="5.9" cy="6.4" r="5.2"/>
	<path class="st5" d="M31.7,1.2c-2.8,0-5.2,2.3-5.2,5.2s2.3,5.2,5.2,5.2s5.2-2.3,5.2-5.2S34.5,1.2,31.7,1.2z M31.7,8.3
		c-1.1,0-1.9-0.9-1.9-1.9c0-1.1,0.9-1.9,1.9-1.9c1.1,0,1.9,0.9,1.9,1.9C33.6,7.5,32.7,8.3,31.7,8.3z"/>
	<path class="st5" d="M18.9,22.3c-6.1,0-11,4.9-11,11s4.9,11,11,11s11-4.9,11-11S25,22.3,18.9,22.3z M18.9,38.5
		c-2.8,0-5.1-2.3-5.1-5.1s2.3-5.1,5.1-5.1s5.1,2.3,5.1,5.1S21.8,38.5,18.9,38.5z"/>
</g>
<g id="widowisko-muzyczne" class="st0">
	<circle class="st5" cx="-3" cy="5.3" r="5.2"/>
	
		<rect x="35.9" y="-2.8" transform="matrix(6.123234e-17 -1 1 6.123234e-17 35.8144 43.68)" class="st5" width="7.7" height="13.5"/>
	<path class="st5" d="M13.2,10.3h-2.6v18.9c-0.8-0.4-1.6-0.7-2.6-0.7c-2.8,0-5.2,2.3-5.2,5.2s2.3,5.2,5.2,5.2c2.7,0,4.9-2.1,5.1-4.7
		h0.1V10.3z"/>
	<path class="st5" d="M35.8,27.1V10.3h-2.6v13.1c-0.7-0.4-1.6-0.7-2.5-0.7c-2.8,0-5.2,2.3-5.2,5.2c0,2.8,2.3,5.2,5.2,5.2
		c2.8,0,5.2-2.3,5.2-5.2C35.8,27.6,35.8,27.4,35.8,27.1z"/>
</g>
<g id="spektakl-baletowy">
	<g>
		<path class="st2" d="M0.9,51.3C0.8,41.2,8.9,33,19,32.9s18.3,8,18.4,18.1"/>
		
			<rect x="13.6" y="14.5" transform="matrix(-1.836970e-16 1 -1 -1.836970e-16 42.8346 5.3258)" class="st2" width="10.2" height="19.2"/>
		<circle class="st2" cx="18.8" cy="9" r="5.2"/>
		<circle class="st2" cx="11.8" cy="2.8" r="2.6"/>
	</g>
</g>
<g id="operetka" class="st0">
	<circle class="st5" cx="14.9" cy="7.8" r="7.1"/>
	<circle class="st5" cx="30.5" cy="7.8" r="7.1"/>
	
		<rect x="0.6" y="0.3" transform="matrix(-1 -1.224647e-16 1.224647e-16 -1 5.4346 42.2245)" class="st5" width="4.2" height="41.7"/>
</g>
</svg>
