<?xml version="1.0" encoding="utf-8"?>
<!-- Generator: Adobe Illustrator 26.3.1, SVG Export Plug-In . SVG Version: 6.00 Build 0)  -->
<svg version="1.1" id="Layer_1" xmlns="http://www.w3.org/2000/svg" xmlns:xlink="http://www.w3.org/1999/xlink" x="0px" y="0px"
	 width="36.1px" height="44.3px" viewBox="0 0 36.1 44.3" style="enable-background:new 0 0 36.1 44.3;" xml:space="preserve">
<style type="text/css">
	.st0{display:none;}
	.st1{display:inline;}
	.st2{fill:#2D2D2D;}
	.st3{display:inline;fill:#D81D4A;}
	.st4{fill:#D81D4A;}
	.st5{display:inline;fill:#2D2D2D;}
</style>
<g id="musical" class="st0">
	<g class="st1">
		<rect x="7.4" y="7.8" class="st2" width="29.7" height="7.7"/>
		<path class="st2" d="M7.4,37c-0.8-0.4-1.6-0.7-2.6-0.7c-2.8,0-5.2,2.3-5.2,5.2c0,2.8,2.3,5.2,5.2,5.2c1.2,0,2.4-0.5,3.4-1.3
			c1-0.9,1.5-2,1.7-3.3c0.1-0.7,0.1-1.6,0.1-2.3c0-0.9,0-1.8,0-2.7c0-2.4,0-4.7,0-7.1s0-4.7,0-7.1c0-1.4,0-2.9,0-4.3
			c0-0.1,0-0.2,0-0.4H7.4V37z"/>
		<path class="st2" d="M37.1,35c-0.1-1.5,0-3.1,0-4.6c0-2.3,0-4.7,0-7c0-1.6,0-3.2,0-4.9c0-0.1,0-0.2,0-0.3h-2.6v13.1
			c-0.7-0.4-1.6-0.7-2.5-0.7c-2.8,0-5.2,2.3-5.2,5.2c0,2.8,2.3,5.2,5.2,5.2c1.5,0,3-0.7,4-1.9c0.9-1.1,1.2-2.5,1.1-3.9
			C37.1,35,37.1,35,37.1,35z"/>
	</g>
</g>
<g id="musical-dla-dzieci" class="st0">
	<rect x="7.5" y="7.8" class="st3" width="29.7" height="7.7"/>
	<g class="st1">
		<g>
			<path class="st4" d="M21.3,54c-4.7,0-9-3.2-10.2-7.9l2.9-0.7c1,4,5.1,6.5,9.2,5.4c4-1,6.5-5.1,5.4-9.2l2.9-0.7
				c1.4,5.6-2,11.4-7.6,12.8C23,53.9,22.1,54,21.3,54z"/>
		</g>
	</g>
	<g class="st1">
		<g>
			<path class="st4" d="M7.4,33.5c-0.8-0.4-1.6-0.7-2.6-0.7c-2.8,0-5.2,2.3-5.2,5.2s2.3,5.2,5.2,5.2c2.7,0,4.9-2.1,5.1-4.7H10V18.2
				H7.4V33.5z M4.8,39.9c-1.1,0-1.9-0.9-1.9-1.9c0-1.1,0.9-1.9,1.9-1.9c1.1,0,1.9,0.9,1.9,1.9C6.7,39.1,5.9,39.9,4.8,39.9z"/>
			<path class="st4" d="M37.1,31.5V18.1h-2.6v9.6C33.8,27.3,32.9,27,32,27c-2.8,0-5.2,2.3-5.2,5.2s2.3,5.2,5.2,5.2
				c2.8,0,5.2-2.3,5.2-5.2C37.2,32,37.2,31.7,37.1,31.5z M32,34.3c-1.1,0-1.9-0.9-1.9-1.9c0-1.1,0.9-1.9,1.9-1.9
				c1.1,0,1.9,0.9,1.9,1.9C34,33.4,33.1,34.3,32,34.3z"/>
		</g>
	</g>
</g>
<g id="wyklad-warsztat" class="st0">
	<g class="st1">
		<rect x="-1.7" y="36.8" class="st2" width="40.4" height="7.7"/>
		<rect x="8.9" y="24.1" class="st2" width="19.2" height="7.7"/>
		<circle class="st2" cx="18.4" cy="13.1" r="5.2"/>
	</g>
</g>
<g id="wystawa" class="st0">
	<g class="st1">
		<rect x="6.4" y="41.2" class="st2" width="7.7" height="5.5"/>
		<rect x="22.7" y="41.2" class="st2" width="7.7" height="5.5"/>
	</g>
	<g class="st1">
		<g>
			<rect x="-0.6" y="7.7" class="st2" width="7.7" height="30.4"/>
			<rect x="29.7" y="7.7" class="st2" width="7.7" height="30.4"/>
		</g>
		<circle class="st2" cx="18.4" cy="22.9" r="5.2"/>
	</g>
</g>
<g id="koncert" class="st0">
	<g class="st1">
		<rect x="24" y="4.9" transform="matrix(0.7071 -0.7071 0.7071 0.7071 2.1385 20.0983)" class="st2" width="2.6" height="5.1"/>
		
			<rect x="36.1" y="17.1" transform="matrix(0.7071 -0.7071 0.7071 0.7071 -2.9184 32.1689)" class="st2" width="2.6" height="5.1"/>
		<rect x="27.3" y="1.7" transform="matrix(0.7071 -0.7071 0.7071 0.7071 5.3636 21.4926)" class="st2" width="2.6" height="5.1"/>
		<rect x="39.4" y="13.9" transform="matrix(0.7071 -0.7071 0.7071 0.7071 0.3067 33.5632)" class="st2" width="2.6" height="5.1"/>
		<rect x="19" y="14.3" transform="matrix(0.7071 -0.7071 0.7071 0.7071 -5.0002 24.2934)" class="st2" width="15.7" height="7.7"/>
		<path class="st2" d="M8.4,22.9c-7.8,0-14.2,6.3-14.2,14.2S0.5,51.3,8.4,51.3S22.6,45,22.6,37.1S16.2,22.9,8.4,22.9z M8.4,43.6
			c-3.6,0-6.6-2.9-6.6-6.6c0-3.7,2.9-6.6,6.6-6.6S15,33.3,15,37S12,43.6,8.4,43.6z"/>
	</g>
</g>
<g id="spektakl" class="st0">
	<g class="st1">
		<rect x="-1.8" y="7.6" class="st2" width="40.4" height="7.7"/>
		<g>
			<circle class="st2" cx="12.3" cy="25.5" r="5.2"/>
			<circle class="st2" cx="24.4" cy="25.5" r="5.2"/>
		</g>
		<g>
			<circle class="st2" cx="5.5" cy="38.6" r="5.2"/>
			<circle class="st2" cx="31.2" cy="38.6" r="5.2"/>
			<circle class="st2" cx="17.5" cy="38.6" r="5.2"/>
		</g>
	</g>
</g>
<g id="monodram-muzyczny" class="st0">
	<rect x="14.4" y="31.9" class="st5" width="7.7" height="17"/>
	<circle class="st5" cx="18.3" cy="22.7" r="5.2"/>
	<g class="st1">
		<g>
			<rect x="-0.6" y="7.6" class="st2" width="7.7" height="30.4"/>
			<rect x="29.7" y="7.6" class="st2" width="7.7" height="30.4"/>
		</g>
	</g>
</g>
<g id="premiera" class="st0">
	<rect x="2.1" y="22.5" class="st5" width="7.7" height="18.2"/>
	<rect x="26.9" y="22.5" class="st5" width="7.7" height="18.2"/>
	<path class="st5" d="M30.8,8.1c-2.8,0-5.2,2.3-5.2,5.2c0,0.1,0,0.3,0,0.4c-0.7,3.5-3.8,6.1-7.5,6c-3.5-0.1-6.4-2.5-7.2-5.7
		c0-0.3,0.1-0.5,0.1-0.8C11,10.4,8.7,8,5.8,8C3,8,0.6,10.3,0.6,13.2c0,2.8,2.3,5.2,5.2,5.2C7,18.4,8.1,18,9,17.3
		c1.4,2.4,3.7,4.3,6.4,5.1c0.8,0.2,1.7,0.4,2.6,0.4c4.1,0.1,7.6-2.2,9.4-5.5c0.9,0.7,2,1.2,3.2,1.2c2.8,0,5.2-2.3,5.2-5.2
		C36,10.4,33.6,8.1,30.8,8.1z"/>
</g>
<g>
	
		<rect x="14.3" y="0.5" transform="matrix(-1 -1.224647e-16 1.224647e-16 -1 36.3681 17.9672)" class="st2" width="7.7" height="17"/>
	<circle class="st2" cx="5.2" cy="6.9" r="5.2"/>
	<path class="st2" d="M30.9,1.6c-2.8,0-5.2,2.3-5.2,5.2s2.3,5.2,5.2,5.2s5.2-2.3,5.2-5.2S33.8,1.6,30.9,1.6z M30.9,8.8
		c-1.1,0-1.9-0.9-1.9-1.9c0-1.1,0.9-1.9,1.9-1.9c1.1,0,1.9,0.9,1.9,1.9C32.9,7.9,32,8.8,30.9,8.8z"/>
	<path class="st2" d="M18.2,21.5c-6.1,0-11,4.9-11,11s4.9,11,11,11s11-4.9,11-11S24.3,21.5,18.2,21.5z M18.2,37.6
		c-2.8,0-5.1-2.3-5.1-5.1s2.3-5.1,5.1-5.1s5.1,2.3,5.1,5.1S21,37.6,18.2,37.6z"/>
</g>
</svg>
