<?xml version="1.0" encoding="utf-8"?>
<!-- Generator: Adobe Illustrator 26.3.1, SVG Export Plug-In . SVG Version: 6.00 Build 0)  -->
<svg version="1.1" xmlns="http://www.w3.org/2000/svg" xmlns:xlink="http://www.w3.org/1999/xlink" x="0px" y="0px" width="32.9px"
	 height="36.8px" viewBox="0 0 32.9 36.8" style="enable-background:new 0 0 32.9 36.8;" xml:space="preserve">
<style type="text/css">
	.st0{display:none;}
	.st1{display:inline;}
	.st2{fill:#2D2D2D;}
	.st3{display:inline;fill:#D81D4A;}
	.st4{fill:#D81D4A;}
	.st5{display:inline;fill:#2D2D2D;}
</style>
<g id="musical" class="st0">
	<g class="st1">
		<rect x="4.8" y="0.3" class="st2" width="29.7" height="7.7"/>
		<path class="st2" d="M4.8,29.5c-0.8-0.4-1.6-0.7-2.6-0.7c-2.8,0-5.2,2.3-5.2,5.2c0,2.8,2.3,5.2,5.2,5.2c1.2,0,2.4-0.5,3.4-1.3
			c1-0.9,1.5-2,1.7-3.3c0.1-0.7,0.1-1.6,0.1-2.3c0-0.9,0-1.8,0-2.7c0-2.4,0-4.7,0-7.1c0-2.4,0-4.7,0-7.1c0-1.4,0-2.9,0-4.3
			c0-0.1,0-0.2,0-0.4H4.8V29.5z"/>
		<path class="st2" d="M34.6,27.5c-0.1-1.5,0-3.1,0-4.6c0-2.3,0-4.7,0-7c0-1.6,0-3.2,0-4.9c0-0.1,0-0.2,0-0.3H32v13.1
			c-0.7-0.4-1.6-0.7-2.5-0.7c-2.8,0-5.2,2.3-5.2,5.2c0,2.8,2.3,5.2,5.2,5.2c1.5,0,3-0.7,4-1.9c0.9-1.1,1.2-2.5,1.1-3.9
			C34.6,27.5,34.6,27.5,34.6,27.5z"/>
	</g>
</g>
<g id="musical-dla-dzieci" class="st0">
	
		<rect x="15.9" y="-10.7" transform="matrix(6.123234e-17 -1 1 6.123234e-17 15.6078 23.8887)" class="st3" width="7.7" height="29.7"/>
	<g class="st1">
		<g>
			<path class="st4" d="M18.8,46.5c-4.7,0-9-3.2-10.2-7.9l2.9-0.7c1,4,5.1,6.5,9.2,5.4c4-1,6.5-5.1,5.4-9.2l2.9-0.7
				c1.4,5.6-2,11.4-7.6,12.8C20.5,46.4,19.6,46.5,18.8,46.5z"/>
		</g>
	</g>
	<g class="st1">
		<g>
			<path class="st4" d="M4.9,26c-0.8-0.4-1.6-0.7-2.6-0.7c-2.8,0-5.2,2.3-5.2,5.2s2.3,5.2,5.2,5.2c2.7,0,4.9-2.1,5.1-4.7h0.1V10.7
				H4.9V26z M2.3,32.4c-1.1,0-1.9-0.9-1.9-1.9c0-1.1,0.9-1.9,1.9-1.9c1.1,0,1.9,0.9,1.9,1.9C4.2,31.6,3.4,32.4,2.3,32.4z"/>
			<path class="st4" d="M34.6,24V10.6H32v9.6c-0.7-0.4-1.6-0.7-2.5-0.7c-2.8,0-5.2,2.3-5.2,5.2s2.3,5.2,5.2,5.2
				c2.8,0,5.2-2.3,5.2-5.2C34.7,24.5,34.6,24.2,34.6,24z M29.5,26.8c-1.1,0-1.9-0.9-1.9-1.9c0-1.1,0.9-1.9,1.9-1.9
				c1.1,0,1.9,0.9,1.9,1.9C31.5,25.9,30.6,26.8,29.5,26.8z"/>
		</g>
	</g>
</g>
<g id="wyklad-warsztat" class="st0">
	<g class="st1">
		
			<rect x="12.1" y="12.9" transform="matrix(-1.836970e-16 1 -1 -1.836970e-16 49.0551 17.2141)" class="st2" width="7.7" height="40.4"/>
		
			<rect x="12.1" y="10.8" transform="matrix(-1.836970e-16 1 -1 -1.836970e-16 36.3668 4.5258)" class="st2" width="7.7" height="19.2"/>
		<circle class="st2" cx="15.9" cy="5.6" r="5.2"/>
	</g>
</g>
<g id="wystawa" class="st0">
	<g class="st1">
		
			<rect x="3.8" y="33.7" transform="matrix(-1 -1.224647e-16 1.224647e-16 -1 15.3868 72.9408)" class="st2" width="7.7" height="5.5"/>
		
			<rect x="20.1" y="33.7" transform="matrix(-1 -1.224647e-16 1.224647e-16 -1 47.9739 72.9408)" class="st2" width="7.7" height="5.5"/>
	</g>
	<g class="st1">
		<g>
			
				<rect x="-3.2" y="0.2" transform="matrix(-1 -1.224647e-16 1.224647e-16 -1 1.2951 30.8761)" class="st2" width="7.7" height="30.4"/>
			
				<rect x="27.2" y="0.2" transform="matrix(-1 -1.224647e-16 1.224647e-16 -1 62.0656 30.8761)" class="st2" width="7.7" height="30.4"/>
		</g>
		<circle class="st2" cx="15.8" cy="15.4" r="5.2"/>
	</g>
</g>
<g id="koncert" class="st0">
	<g class="st1">
		<rect x="21.4" y="-2.5" transform="matrix(0.7071 -0.7071 0.7071 0.7071 6.6352 16.0806)" class="st2" width="2.6" height="5.1"/>
		<rect x="33.5" y="9.6" transform="matrix(0.7071 -0.7071 0.7071 0.7071 1.6361 28.1494)" class="st2" width="2.6" height="5.1"/>
		<rect x="24.7" y="-5.7" transform="matrix(0.7071 -0.7071 0.7071 0.7071 9.8601 17.4809)" class="st2" width="2.6" height="5.1"/>
		<rect x="36.8" y="6.4" transform="matrix(0.7071 -0.7071 0.7071 0.7071 4.861 29.5497)" class="st2" width="2.6" height="5.1"/>
		
			<rect x="20.5" y="2.8" transform="matrix(-0.7071 -0.7071 0.7071 -0.7071 33.9547 35.4574)" class="st2" width="7.7" height="15.7"/>
		<path class="st2" d="M5.8,15.4c-7.8,0-14.2,6.3-14.2,14.2S-2,43.7,5.8,43.7S20,37.3,20,29.5S13.7,15.4,5.8,15.4z M5.8,36.1
			c-3.6,0-6.6-2.9-6.6-6.6s2.9-6.6,6.6-6.6s6.6,2.9,6.6,6.6S9.5,36.1,5.8,36.1z"/>
	</g>
</g>
<g id="spektakl" class="st0">
	<g class="st1">
		
			<rect x="12" y="-16.2" transform="matrix(-1.836970e-16 1 -1 -1.836970e-16 19.8109 -11.8694)" class="st2" width="7.7" height="40.4"/>
		<g>
			<circle class="st2" cx="9.8" cy="18" r="5.2"/>
			<circle class="st2" cx="21.8" cy="18" r="5.2"/>
		</g>
		<g>
			<circle class="st2" cx="3" cy="31.1" r="5.2"/>
			<circle class="st2" cx="28.7" cy="31.1" r="5.2"/>
			<circle class="st2" cx="15" cy="31.1" r="5.2"/>
		</g>
	</g>
</g>
<g id="monodram-muzyczny" class="st0">
	<rect x="11.9" y="24.4" class="st5" width="7.7" height="17"/>
	<circle class="st5" cx="15.7" cy="15.2" r="5.2"/>
	<g class="st1">
		<g>
			
				<rect x="-3.2" y="0.1" transform="matrix(-1 -1.224647e-16 1.224647e-16 -1 1.2951 30.6389)" class="st2" width="7.7" height="30.4"/>
			
				<rect x="27.2" y="0.1" transform="matrix(-1 -1.224647e-16 1.224647e-16 -1 62.0656 30.6389)" class="st2" width="7.7" height="30.4"/>
		</g>
	</g>
</g>
<g id="goscinny" class="st0">
	<g class="st1">
		<g>
			<path class="st2" d="M12.3,36.4C7,35.1,3.1,30.3,3.1,24.6l3.5,0c0,4.8,3.9,8.8,8.8,8.8c4.8,0,8.8-4,8.8-8.8l3.5,0
				c0,6.8-5.5,12.3-12.2,12.3C14.3,36.8,13.3,36.7,12.3,36.4z"/>
		</g>
	</g>
	
		<rect x="12" y="-3.3" transform="matrix(-1.836970e-16 1 -1 -1.836970e-16 32.7546 1.0743)" class="st5" width="7.7" height="40.4"/>
	
		<rect x="12" y="-5.4" transform="matrix(-1.836970e-16 1 -1 -1.836970e-16 20.0663 -11.6141)" class="st5" width="7.7" height="19.2"/>
</g>
<g id="premiera" class="st0">
	<rect x="-0.5" y="15" class="st5" width="7.7" height="18.2"/>
	<rect x="24.4" y="15" class="st5" width="7.7" height="18.2"/>
	<path class="st5" d="M28.3,0.6c-2.8,0-5.2,2.3-5.2,5.2c0,0.1,0,0.3,0,0.4c-0.7,3.5-3.8,6.1-7.5,6c-3.5-0.1-6.4-2.5-7.2-5.7
		c0-0.3,0.1-0.5,0.1-0.8c0-2.8-2.3-5.2-5.2-5.2c-2.8,0-5.2,2.3-5.2,5.2c0,2.8,2.3,5.2,5.2,5.2c1.2,0,2.3-0.4,3.2-1.1
		c1.4,2.4,3.7,4.3,6.4,5.1c0.8,0.2,1.7,0.4,2.6,0.4c4.1,0.1,7.6-2.2,9.4-5.5c0.9,0.7,2,1.2,3.2,1.2c2.8,0,5.2-2.3,5.2-5.2
		C33.4,2.9,31.1,0.6,28.3,0.6z"/>
</g>
<g id="spektakl-komediowo-muzyczny">
	<g>
		
			<rect x="0.2" y="28.7" transform="matrix(-1.836970e-16 1 -1 -1.836970e-16 36.415 28.2667)" class="st2" width="7.7" height="7.3"/>
		
			<rect x="0.2" y="0.5" transform="matrix(-1.836970e-16 1 -1 -1.836970e-16 8.2322 8.388741e-02)" class="st2" width="7.7" height="7.3"/>
	</g>
	<path class="st2" d="M13.8,0c10.1-0.1,18.3,8,18.4,18.1c0.1,10.1-8,18.3-18.1,18.4"/>
</g>
<g id="rock-opera" class="st0">
	<rect x="11.9" y="0" transform="matrix(-1 -1.224647e-16 1.224647e-16 -1 31.4934 17.0621)" class="st5" width="7.7" height="17"/>
	<circle class="st5" cx="2.7" cy="6.4" r="5.2"/>
	<path class="st5" d="M28.5,1.2c-2.8,0-5.2,2.3-5.2,5.2s2.3,5.2,5.2,5.2s5.2-2.3,5.2-5.2S31.3,1.2,28.5,1.2z M28.5,8.3
		c-1.1,0-1.9-0.9-1.9-1.9c0-1.1,0.9-1.9,1.9-1.9c1.1,0,1.9,0.9,1.9,1.9C30.4,7.5,29.6,8.3,28.5,8.3z"/>
	<path class="st5" d="M15.7,22.3c-6.1,0-11,4.9-11,11s4.9,11,11,11s11-4.9,11-11S21.8,22.3,15.7,22.3z M15.7,38.5
		c-2.8,0-5.1-2.3-5.1-5.1s2.3-5.1,5.1-5.1s5.1,2.3,5.1,5.1S18.6,38.5,15.7,38.5z"/>
</g>
<g id="widowisko-muzyczne" class="st0">
	<circle class="st5" cx="-11.1" cy="4.6" r="5.2"/>
	
		<rect x="32.7" y="-2.8" transform="matrix(6.123234e-17 -1 1 6.123234e-17 32.6217 40.4874)" class="st5" width="7.7" height="13.5"/>
	<path class="st5" d="M10,10.3H7.5v18.9c-0.8-0.4-1.6-0.7-2.6-0.7c-2.8,0-5.2,2.3-5.2,5.2s2.3,5.2,5.2,5.2c2.7,0,4.9-2.1,5.1-4.7H10
		V10.3z"/>
	<path class="st5" d="M32.6,27.1V10.3H30v13.1c-0.7-0.4-1.6-0.7-2.5-0.7c-2.8,0-5.2,2.3-5.2,5.2c0,2.8,2.3,5.2,5.2,5.2
		c2.8,0,5.2-2.3,5.2-5.2C32.7,27.6,32.6,27.4,32.6,27.1z"/>
</g>
<g id="spektakl-baletowy" class="st0">
	<g class="st1">
		<path class="st2" d="M-2.3,51.3c-0.1-10.1,8-18.3,18.1-18.4s18.3,8,18.4,18.1"/>
		
			<rect x="10.5" y="14.5" transform="matrix(-1.836970e-16 1 -1 -1.836970e-16 39.6419 8.5184)" class="st2" width="10.2" height="19.2"/>
		<circle class="st2" cx="15.6" cy="9" r="5.2"/>
		<circle class="st2" cx="8.6" cy="2.8" r="2.6"/>
	</g>
</g>
<g id="operetka" class="st0">
	<circle class="st5" cx="11.7" cy="7.8" r="7.1"/>
	<circle class="st5" cx="27.3" cy="7.8" r="7.1"/>
	
		<rect x="-2.6" y="0.3" transform="matrix(-1 -1.224647e-16 1.224647e-16 -1 -0.9508 42.2245)" class="st5" width="4.2" height="41.7"/>
</g>
</svg>
