<?xml version="1.0" encoding="utf-8"?>
<!-- Generator: Adobe Illustrator 26.3.1, SVG Export Plug-In . SVG Version: 6.00 Build 0)  -->
<svg version="1.1" xmlns="http://www.w3.org/2000/svg" xmlns:xlink="http://www.w3.org/1999/xlink" x="0px" y="0px" width="55.3px"
	 height="39.2px" viewBox="0 0 55.3 39.2" style="enable-background:new 0 0 55.3 39.2;" xml:space="preserve">
<style type="text/css">
	.st0{display:none;}
	.st1{display:inline;}
	.st2{fill:#2D2D2D;}
	.st3{display:inline;fill:#D81D4A;}
	.st4{fill:#D81D4A;}
	.st5{display:inline;fill:#2D2D2D;}
</style>
<g id="musical" class="st0">
	<g class="st1">
		<rect x="16.6" y="0.3" class="st2" width="29.7" height="7.7"/>
		<path class="st2" d="M16.6,29.5c-0.8-0.4-1.6-0.7-2.6-0.7c-2.8,0-5.2,2.3-5.2,5.2c0,2.8,2.3,5.2,5.2,5.2c1.2,0,2.4-0.5,3.4-1.3
			c1-0.9,1.5-2,1.7-3.3c0.1-0.7,0.1-1.6,0.1-2.3c0-0.9,0-1.8,0-2.7c0-2.4,0-4.7,0-7.1c0-2.4,0-4.7,0-7.1c0-1.4,0-2.9,0-4.3
			c0-0.1,0-0.2,0-0.4h-2.6V29.5z"/>
		<path class="st2" d="M46.4,27.5c-0.1-1.5,0-3.1,0-4.6c0-2.3,0-4.7,0-7c0-1.6,0-3.2,0-4.9c0-0.1,0-0.2,0-0.3h-2.6v13.1
			c-0.7-0.4-1.6-0.7-2.5-0.7c-2.8,0-5.2,2.3-5.2,5.2c0,2.8,2.3,5.2,5.2,5.2c1.5,0,3-0.7,4-1.9c0.9-1.1,1.2-2.5,1.1-3.9
			C46.4,27.5,46.4,27.5,46.4,27.5z"/>
	</g>
</g>
<g id="musical-dla-dzieci" class="st0">
	
		<rect x="27.7" y="-10.7" transform="matrix(6.123234e-17 -1 1 6.123234e-17 27.3876 35.6685)" class="st3" width="7.7" height="29.7"/>
	<g class="st1">
		<g>
			<path class="st4" d="M30.5,46.5c-4.7,0-9-3.2-10.2-7.9l2.9-0.7c1,4,5.1,6.5,9.2,5.4c4-1,6.5-5.1,5.4-9.2l2.9-0.7
				c1.4,5.6-2,11.4-7.6,12.8C32.3,46.4,31.4,46.5,30.5,46.5z"/>
		</g>
	</g>
	<g class="st1">
		<g>
			<path class="st4" d="M16.7,26c-0.8-0.4-1.6-0.7-2.6-0.7c-2.8,0-5.2,2.3-5.2,5.2s2.3,5.2,5.2,5.2c2.7,0,4.9-2.1,5.1-4.7h0.1V10.7
				h-2.6V26z M14.1,32.4c-1.1,0-1.9-0.9-1.9-1.9c0-1.1,0.9-1.9,1.9-1.9c1.1,0,1.9,0.9,1.9,1.9C16,31.6,15.1,32.4,14.1,32.4z"/>
			<path class="st4" d="M46.4,24V10.6h-2.6v9.6c-0.7-0.4-1.6-0.7-2.5-0.7c-2.8,0-5.2,2.3-5.2,5.2s2.3,5.2,5.2,5.2
				c2.8,0,5.2-2.3,5.2-5.2C46.5,24.5,46.4,24.2,46.4,24z M41.3,26.8c-1.1,0-1.9-0.9-1.9-1.9c0-1.1,0.9-1.9,1.9-1.9
				c1.1,0,1.9,0.9,1.9,1.9C43.2,25.9,42.4,26.8,41.3,26.8z"/>
		</g>
	</g>
</g>
<g id="wyklad-warsztat" class="st0">
	<g class="st1">
		
			<rect x="23.8" y="12.9" transform="matrix(-1.836970e-16 1 -1 -1.836970e-16 60.8349 5.4343)" class="st2" width="7.7" height="40.4"/>
		
			<rect x="23.8" y="10.8" transform="matrix(-1.836970e-16 1 -1 -1.836970e-16 48.1466 -7.254)" class="st2" width="7.7" height="19.2"/>
		<circle class="st2" cx="27.7" cy="5.6" r="5.2"/>
	</g>
</g>
<g id="wystawa" class="st0">
	<g class="st1">
		
			<rect x="15.6" y="33.7" transform="matrix(-1 -1.224647e-16 1.224647e-16 -1 38.9464 72.9408)" class="st2" width="7.7" height="5.5"/>
		
			<rect x="31.9" y="33.7" transform="matrix(-1 -1.224647e-16 1.224647e-16 -1 71.5335 72.9408)" class="st2" width="7.7" height="5.5"/>
	</g>
	<g class="st1">
		<g>
			
				<rect x="8.6" y="0.2" transform="matrix(-1 -1.224647e-16 1.224647e-16 -1 24.8547 30.8761)" class="st2" width="7.7" height="30.4"/>
			
				<rect x="38.9" y="0.2" transform="matrix(-1 -1.224647e-16 1.224647e-16 -1 85.6252 30.8761)" class="st2" width="7.7" height="30.4"/>
		</g>
		<circle class="st2" cx="27.6" cy="15.4" r="5.2"/>
	</g>
</g>
<g id="koncert" class="st0">
	<g class="st1">
		
			<rect x="33.2" y="-2.5" transform="matrix(0.7071 -0.7071 0.7071 0.7071 10.0854 24.4102)" class="st2" width="2.6" height="5.1"/>
		<rect x="45.3" y="9.6" transform="matrix(0.7071 -0.7071 0.7071 0.7071 5.0863 36.479)" class="st2" width="2.6" height="5.1"/>
		
			<rect x="36.5" y="-5.7" transform="matrix(0.7071 -0.7071 0.7071 0.7071 13.3103 25.8105)" class="st2" width="2.6" height="5.1"/>
		<rect x="48.6" y="6.4" transform="matrix(0.7071 -0.7071 0.7071 0.7071 8.3112 37.8793)" class="st2" width="2.6" height="5.1"/>
		
			<rect x="32.2" y="2.8" transform="matrix(-0.7071 -0.7071 0.7071 -0.7071 54.0641 43.787)" class="st2" width="7.7" height="15.7"/>
		<path class="st2" d="M17.6,15.4c-7.8,0-14.2,6.3-14.2,14.2s6.3,14.2,14.2,14.2s14.2-6.3,14.2-14.2S25.4,15.4,17.6,15.4z
			 M17.6,36.1c-3.6,0-6.6-2.9-6.6-6.6s2.9-6.6,6.6-6.6s6.6,2.9,6.6,6.6S21.2,36.1,17.6,36.1z"/>
	</g>
</g>
<g id="spektakl" class="st0">
	<g class="st1">
		
			<rect x="23.8" y="-16.2" transform="matrix(-1.836970e-16 1 -1 -1.836970e-16 31.5907 -23.6492)" class="st2" width="7.7" height="40.4"/>
		<g>
			<circle class="st2" cx="21.6" cy="18" r="5.2"/>
			<circle class="st2" cx="33.6" cy="18" r="5.2"/>
		</g>
		<g>
			<circle class="st2" cx="14.8" cy="31.1" r="5.2"/>
			<circle class="st2" cx="40.5" cy="31.1" r="5.2"/>
			<circle class="st2" cx="26.8" cy="31.1" r="5.2"/>
		</g>
	</g>
</g>
<g id="monodram-muzyczny" class="st0">
	<rect x="23.7" y="24.4" class="st5" width="7.7" height="17"/>
	<circle class="st5" cx="27.5" cy="15.2" r="5.2"/>
	<g class="st1">
		<g>
			
				<rect x="8.6" y="0.1" transform="matrix(-1 -1.224647e-16 1.224647e-16 -1 24.8547 30.6389)" class="st2" width="7.7" height="30.4"/>
			
				<rect x="38.9" y="0.1" transform="matrix(-1 -1.224647e-16 1.224647e-16 -1 85.6252 30.6389)" class="st2" width="7.7" height="30.4"/>
		</g>
	</g>
</g>
<g id="goscinny" class="st0">
	<g class="st1">
		<g>
			<path class="st2" d="M24.1,36.4c-5.3-1.3-9.2-6.2-9.3-11.9l3.5,0c0,4.8,3.9,8.8,8.8,8.8c4.8,0,8.8-4,8.8-8.8l3.5,0
				c0,6.8-5.5,12.3-12.2,12.3C26.1,36.8,25.1,36.7,24.1,36.4z"/>
		</g>
	</g>
	
		<rect x="23.8" y="-3.3" transform="matrix(-1.836970e-16 1 -1 -1.836970e-16 44.5344 -10.7055)" class="st5" width="7.7" height="40.4"/>
	
		<rect x="23.8" y="-5.4" transform="matrix(-1.836970e-16 1 -1 -1.836970e-16 31.8461 -23.3939)" class="st5" width="7.7" height="19.2"/>
</g>
<g id="premiera" class="st0">
	<rect x="11.3" y="15" class="st5" width="7.7" height="18.2"/>
	<rect x="36.2" y="15" class="st5" width="7.7" height="18.2"/>
	<path class="st5" d="M40.1,0.6c-2.8,0-5.2,2.3-5.2,5.2c0,0.1,0,0.3,0,0.4c-0.7,3.5-3.8,6.1-7.5,6c-3.5-0.1-6.4-2.5-7.2-5.7
		c0-0.3,0.1-0.5,0.1-0.8c0-2.8-2.3-5.2-5.2-5.2c-2.8,0-5.2,2.3-5.2,5.2c0,2.8,2.3,5.2,5.2,5.2c1.2,0,2.3-0.4,3.2-1.1
		c1.4,2.4,3.7,4.3,6.4,5.1c0.8,0.2,1.7,0.4,2.6,0.4c4.1,0.1,7.6-2.2,9.4-5.5c0.9,0.7,2,1.2,3.2,1.2c2.8,0,5.2-2.3,5.2-5.2
		C45.2,2.9,42.9,0.6,40.1,0.6z"/>
</g>
<g id="spektakl-komediowo-muzyczny" class="st0">
	<g class="st1">
		
			<rect x="12" y="28.7" transform="matrix(-1.836970e-16 1 -1 -1.836970e-16 48.1948 16.4869)" class="st2" width="7.7" height="7.3"/>
		
			<rect x="12" y="0.5" transform="matrix(-1.836970e-16 1 -1 -1.836970e-16 20.012 -11.6959)" class="st2" width="7.7" height="7.3"/>
	</g>
	<path class="st5" d="M25.6,0C35.7-0.1,43.9,8,44,18.1c0.1,10.1-8,18.3-18.1,18.4"/>
</g>
<g id="rock-opera" class="st0">
	<rect x="23.7" y="0" transform="matrix(-1 -1.224647e-16 1.224647e-16 -1 55.053 17.0621)" class="st5" width="7.7" height="17"/>
	<circle class="st5" cx="14.5" cy="6.4" r="5.2"/>
	<path class="st5" d="M40.3,1.2c-2.8,0-5.2,2.3-5.2,5.2s2.3,5.2,5.2,5.2s5.2-2.3,5.2-5.2S43.1,1.2,40.3,1.2z M40.3,8.3
		c-1.1,0-1.9-0.9-1.9-1.9c0-1.1,0.9-1.9,1.9-1.9c1.1,0,1.9,0.9,1.9,1.9C42.2,7.5,41.3,8.3,40.3,8.3z"/>
	<path class="st5" d="M27.5,22.3c-6.1,0-11,4.9-11,11s4.9,11,11,11s11-4.9,11-11S33.6,22.3,27.5,22.3z M27.5,38.5
		c-2.8,0-5.1-2.3-5.1-5.1s2.3-5.1,5.1-5.1s5.1,2.3,5.1,5.1S30.4,38.5,27.5,38.5z"/>
</g>
<g id="widowisko-muzyczne">
	<circle class="st2" cx="5.6" cy="5.3" r="5.2"/>
	
		<rect x="44.5" y="-2.8" transform="matrix(6.123234e-17 -1 1 6.123234e-17 44.4015 52.2672)" class="st2" width="7.7" height="13.5"/>
	<path class="st2" d="M21.8,10.3h-2.6v18.9c-0.8-0.4-1.6-0.7-2.6-0.7c-2.8,0-5.2,2.3-5.2,5.2s2.3,5.2,5.2,5.2c2.7,0,4.9-2.1,5.1-4.7
		h0.1V10.3z"/>
	<path class="st2" d="M44.4,27.1V10.3h-2.6v13.1c-0.7-0.4-1.6-0.7-2.5-0.7c-2.8,0-5.2,2.3-5.2,5.2c0,2.8,2.3,5.2,5.2,5.2
		c2.8,0,5.2-2.3,5.2-5.2C44.4,27.6,44.4,27.4,44.4,27.1z"/>
</g>
<g id="spektakl-baletowy" class="st0">
	<g class="st1">
		<path class="st2" d="M9.5,51.3c-0.1-10.1,8-18.3,18.1-18.4S45.9,40.9,46,51"/>
		
			<rect x="22.2" y="14.5" transform="matrix(-1.836970e-16 1 -1 -1.836970e-16 51.4217 -3.2614)" class="st2" width="10.2" height="19.2"/>
		<circle class="st2" cx="27.3" cy="9" r="5.2"/>
		<circle class="st2" cx="20.4" cy="2.8" r="2.6"/>
	</g>
</g>
<g id="operetka" class="st0">
	<circle class="st5" cx="23.5" cy="7.8" r="7.1"/>
	<circle class="st5" cx="39.1" cy="7.8" r="7.1"/>
	
		<rect x="9.2" y="0.3" transform="matrix(-1 -1.224647e-16 1.224647e-16 -1 22.6088 42.2245)" class="st5" width="4.2" height="41.7"/>
</g>
</svg>
