<?xml version="1.0" encoding="utf-8"?>
<!-- Generator: Adobe Illustrator 26.3.1, SVG Export Plug-In . SVG Version: 6.00 Build 0)  -->
<svg version="1.1" id="Layer_1" xmlns="http://www.w3.org/2000/svg" xmlns:xlink="http://www.w3.org/1999/xlink" x="0px" y="0px"
	 width="39.6px" height="39.3px" viewBox="0 0 39.6 39.3" style="enable-background:new 0 0 39.6 39.3;" xml:space="preserve">
<style type="text/css">
	.st0{fill:#2D2D2D;}
</style>
<rect x="28.3" y="25.8" transform="matrix(0.7071 -0.7071 0.7071 0.7071 -13.077 32.0435)" class="st0" width="7.7" height="12.1"/>
<path class="st0" d="M14.6,0.5C6.8,0.5,0.5,6.8,0.5,14.6c0,7.8,6.3,14.2,14.2,14.2c7.8,0,14.2-6.3,14.2-14.2
	C28.8,6.8,22.5,0.5,14.6,0.5z M14.6,20c-3,0-5.4-2.4-5.4-5.4s2.4-5.4,5.4-5.4s5.4,2.4,5.4,5.4S17.6,20,14.6,20z"/>
</svg>
