<?xml version="1.0" encoding="utf-8"?>
<!-- Generator: Adobe Illustrator 26.3.1, SVG Export Plug-In . SVG Version: 6.00 Build 0)  -->
<svg version="1.1" id="Layer_1" xmlns="http://www.w3.org/2000/svg" xmlns:xlink="http://www.w3.org/1999/xlink" x="0px" y="0px"
	 width="27.2px" height="27.2px" viewBox="0 0 27.2 27.2" style="enable-background:new 0 0 27.2 27.2;" xml:space="preserve">
<style type="text/css">
	.st0{fill:#2D2D2D;}
</style>
<path class="st0" d="M0.6,11.3c0-0.3,0-0.7,0-1c0-0.3,0.1-0.5,0.1-0.8c0.2-1.6,0.8-3,1.6-4.3c1.1-1.6,2.5-2.8,4.3-3.6
	c2-0.9,4-1.1,6.1-0.6c2.2,0.5,4,1.5,5.5,3.2c1.5,1.7,2.4,3.7,2.5,6c0.2,2.3-0.4,4.4-1.6,6.3c0,0.1-0.1,0.2-0.1,0.2
	c0.5,0.1,0.9,0.4,1.3,0.8c1.8,1.8,3.6,3.6,5.4,5.4c0.1,0.1,0.2,0.3,0.4,0.4c0.6,0.7,0.5,1.8,0,2.6c-0.4,0.5-0.9,0.7-1.4,0.8
	c-0.2,0-0.4,0-0.6,0c-0.7-0.1-1.1-0.5-1.6-1c-1.6-1.6-3.1-3.1-4.7-4.7c-0.5-0.5-1.1-1-1.2-1.7c-0.1,0.1-0.2,0.1-0.2,0.1
	c-1.3,0.8-2.7,1.4-4.2,1.6c-1.9,0.3-3.8,0-5.6-0.8c-3.3-1.6-5.3-4.2-5.8-7.9C0.7,11.8,0.7,11.5,0.6,11.3z M10.8,18.3
	c4.2,0,7.6-3.4,7.6-7.6c0-4.2-3.4-7.6-7.6-7.6c-4.2,0-7.6,3.4-7.6,7.5C3.2,14.9,6.6,18.3,10.8,18.3z"/>
</svg>
